<?xml version="1.0" encoding="UTF-8"?>
<svg id="Layer_2" data-name="Layer 2" xmlns="http://www.w3.org/2000/svg" xmlns:xlink="http://www.w3.org/1999/xlink" viewBox="0 0 48 48">
  <defs>
    <style>
      .cls-1 {
        fill: url(#linear-gradient-3);
      }

      .cls-1, .cls-2, .cls-3, .cls-4 {
        fill-rule: evenodd;
        stroke-width: 0px;
      }

      .cls-2 {
        fill: url(#linear-gradient);
      }

      .cls-3 {
        fill: url(#linear-gradient-2);
      }

      .cls-4 {
        fill: url(#linear-gradient-4);
      }
    </style>
    <linearGradient id="linear-gradient" x1=".07" y1="7.71" x2="25.45" y2="59.06" gradientUnits="userSpaceOnUse">
      <stop offset="0" stop-color="#007bc7"/>
      <stop offset="1" stop-color="#0a3675"/>
    </linearGradient>
    <linearGradient id="linear-gradient-2" x1="14.03" y1="-.55" x2="39.3" y2="50.58" xlink:href="#linear-gradient"/>
    <linearGradient id="linear-gradient-3" x1="10.96" y1="1.12" x2="35.98" y2="51.74" xlink:href="#linear-gradient"/>
    <linearGradient id="linear-gradient-4" x1="25.59" y1="-.44" x2="25.59" y2="11.08" gradientUnits="userSpaceOnUse">
      <stop offset="0" stop-color="#89b824"/>
      <stop offset="1" stop-color="#3d7138"/>
    </linearGradient>
  </defs>
  <g id="Layer_1-2" data-name="Layer 1">
    <g>
      <g>
        <path class="cls-2" d="M9.25,28.06v19.94h10.96v-21.23c-3.67-.37-7.36.19-10.96,1.29Z"/>
        <path class="cls-3" d="M30.53,30.37v17.63h11.04v-8.01c-3.21-3.95-6.92-7.28-11.04-9.62Z"/>
        <path class="cls-1" d="M47.67,45.35c-1.01-5.77-3.12-11.25-6.1-15.92V13.02L30.53,0v19.24c-.57-.3-1.14-.58-1.72-.84-2.75-1.22-5.66-1.92-8.59-2.05V0h-10.96v19c-1.11.65-2.18,1.4-3.18,2.28-1.7,1.49-3.25,3.24-4.58,5.2-.1.14-1.45,2.49-1.49,2.48,0,0,.2.08.2.08.42.16,2.15-1.08,2.56-1.27,6.56-3.03,13.84-5.11,20.84-3.19,10.47,2.87,19.01,12.07,24.41,23-.25-.51-.23-1.61-.33-2.21Z"/>
      </g>
      <polygon class="cls-4" points="21.44 0 29.75 0 21.45 10.01 21.44 0"/>
    </g>
  </g>
</svg>