<svg width="238" height="52" viewBox="0 0 238 52" fill="none" xmlns="http://www.w3.org/2000/svg">
<path fill-rule="evenodd" clip-rule="evenodd" d="M97.6608 7.28125H100.935V25.766H97.6608V22.5919H94.6668V19.8845H97.7543V17.8307H94.6668V15.1233H97.6608M118.618 7.28125H121.799V13.2561H125.542V15.2166L125.635 14.6565C125.635 14.3764 125.729 14.003 125.822 13.8163C126.103 12.696 126.571 11.7624 127.132 11.0156C127.694 10.2687 128.349 9.61519 129.191 9.24176C129.939 8.86833 130.781 8.68161 131.81 8.68161C132.746 8.68161 133.588 8.86833 134.43 9.24176C135.178 9.61519 135.927 10.2687 136.488 11.0156C137.05 11.7624 137.424 12.696 137.798 13.8163C138.079 14.8432 138.172 16.1502 138.172 17.5506C138.172 18.9509 138.079 20.2579 137.798 21.3782C137.424 22.4985 137.05 23.4321 136.488 24.179C135.927 24.9258 135.178 25.486 134.43 25.8594C133.588 26.2328 132.746 26.4195 131.81 26.4195C130.781 26.4195 129.939 26.2328 129.191 25.8594C128.349 25.486 127.694 24.9258 127.132 24.179C126.571 23.4321 126.103 22.4985 125.822 21.3782C125.542 20.2579 125.355 18.9509 125.355 17.5506V16.5236L125.448 16.0569H121.799V21.7517H118.618V7.28125ZM141.634 7.28125H144.909V31.8343H141.634V7.28125ZM164.369 7.28125H167.457V25.766H164.369V7.28125ZM185.607 7.28125H188.882V31.8343H185.607V7.28125ZM83.8139 7.46797H92.515V10.082H83.8139V7.46797ZM159.598 7.56132H162.685V25.2059H159.598V15.9635H157.726C157.633 16.8037 157.446 17.4572 157.072 18.1107C156.791 18.6709 156.417 19.231 155.949 19.6044C155.481 20.0712 154.92 20.3513 154.358 20.538C153.703 20.8181 153.142 20.9115 152.487 20.9115C151.739 20.9115 150.99 20.7247 150.429 20.4447C149.774 20.1646 149.119 19.7912 148.651 19.231C148.183 18.7642 147.809 18.1107 147.528 17.2705C147.248 16.5236 147.154 15.6834 147.154 14.6565C147.154 13.6296 147.248 12.7893 147.528 12.0425C147.809 11.2023 148.183 10.5488 148.651 10.082C149.119 9.52183 149.774 9.1484 150.429 8.86833C150.99 8.58826 151.739 8.40154 152.487 8.40154C153.142 8.40154 153.703 8.4949 154.358 8.77497C154.92 8.96169 155.387 9.24176 155.855 9.70855C156.323 10.082 156.697 10.5488 157.072 11.2023C157.352 11.7624 157.539 12.4159 157.726 13.1628H159.598V7.56132ZM116.092 8.30818C115.905 9.8019 115.624 11.2956 115.063 12.6026C114.502 14.003 113.66 15.2166 112.724 16.4303C111.788 17.5506 110.572 18.4842 109.169 19.4177C107.765 20.2579 106.175 21.0048 104.397 21.4716L102.526 19.1377C105.426 18.2041 107.765 17.0838 109.356 15.6834C110.946 14.3764 111.882 12.7893 112.256 11.0156H104.116V8.30818H116.092ZM181.771 9.33512C181.678 10.8288 181.491 12.3226 181.023 13.8163C180.649 15.31 179.994 16.7104 179.245 18.1107C179.994 19.231 180.929 20.2579 181.959 21.2849C182.894 22.2185 184.017 23.152 185.233 23.9922L182.894 26.3262C181.865 25.486 180.836 24.6458 179.994 23.7122C179.152 22.7786 178.31 21.845 177.468 20.7247C176.532 22.0317 175.503 23.152 174.38 24.2723C173.164 25.2993 171.948 26.2328 170.638 26.9797L168.392 24.9258C169.983 23.9922 171.293 22.9653 172.509 21.9384C173.632 20.8181 174.661 19.6978 175.409 18.4842C176.251 17.3639 176.813 16.2436 177.281 15.1233C177.655 14.003 177.935 13.0694 178.029 12.1358C177.187 12.2292 176.345 12.2292 175.409 12.2292H170.076V9.42847H177.748C178.871 9.33512 180.274 9.33512 181.771 9.33512ZM152.487 11.1089C151.832 11.1089 151.271 11.389 150.803 11.9491C150.429 12.6026 150.242 13.4428 150.242 14.6565C150.242 15.8701 150.429 16.8037 150.803 17.3639C151.271 17.924 151.832 18.2041 152.487 18.2041C153.142 18.2041 153.703 17.924 154.078 17.3639C154.545 16.8037 154.733 15.8701 154.733 14.6565C154.733 13.4428 154.545 12.6026 154.078 11.9491C153.703 11.389 153.142 11.1089 152.487 11.1089ZM80.6328 11.389H95.5089V13.9096H80.6328V11.389ZM131.81 11.4823C130.781 11.4823 130.033 12.0425 129.471 13.0694C128.91 14.1897 128.723 15.6834 128.723 17.5506C128.723 19.5111 128.91 20.9114 129.471 22.0317C130.033 23.0587 130.781 23.6188 131.81 23.6188C132.746 23.6188 133.494 23.0587 134.056 22.0317C134.617 20.9114 134.898 19.5111 134.898 17.5506C134.898 15.5901 134.617 14.1897 134.056 13.0694C133.494 12.0425 132.746 11.4823 131.81 11.4823ZM88.1176 14.6565C89.0532 14.6565 89.8953 14.8432 90.6438 15.0299C91.2987 15.31 91.9536 15.5901 92.4214 16.0569C92.8892 16.4303 93.2634 16.8971 93.5441 17.4572C93.7312 17.924 93.9184 18.4842 93.9184 19.0443C93.9184 19.6044 93.7312 20.1646 93.5441 20.7247C93.2634 21.1915 92.8892 21.7517 92.4214 22.1251C91.9536 22.4985 91.2987 22.872 90.6438 23.152C89.8953 23.3387 89.0532 23.5255 88.1176 23.5255C87.182 23.5255 86.34 23.3387 85.5915 23.152C84.843 22.872 84.2817 22.4985 83.8139 22.1251C83.2525 21.7517 82.8783 21.1915 82.6911 20.7247C82.4105 20.1646 82.3169 19.6044 82.3169 19.0443C82.3169 18.4842 82.4105 17.924 82.6911 17.4572C82.8783 16.8971 83.2525 16.4303 83.8139 16.0569C84.2817 15.5901 84.843 15.31 85.5915 15.0299C86.34 14.8432 87.182 14.6565 88.1176 14.6565ZM88.1176 17.0838C87.0885 17.0838 86.34 17.2705 85.9657 17.6439C85.5915 18.0174 85.3108 18.4842 85.3108 19.0443C85.3108 19.6044 85.5915 20.0712 85.9657 20.4447C86.34 20.8181 87.0885 21.0048 88.1176 21.0048C89.0532 21.0048 89.7082 20.8181 90.176 20.4447C90.6438 20.0712 90.8309 19.6044 90.8309 19.0443C90.8309 18.4842 90.6438 18.0174 90.176 17.6439C89.8017 17.2705 89.0532 17.0838 88.1176 17.0838ZM114.127 21.7517C115.437 21.7517 116.653 21.9384 117.683 22.1251C118.712 22.4052 119.554 22.7786 120.209 23.2454C120.957 23.7122 121.425 24.2723 121.799 24.8325C122.174 25.486 122.361 26.1395 122.361 26.8863C122.361 27.6332 122.174 28.2867 121.799 28.9402C121.425 29.5003 120.957 30.0605 120.209 30.5273C119.554 30.9941 118.712 31.3675 117.683 31.5542C116.653 31.8343 115.437 32.021 114.127 32.021C112.818 32.021 111.601 31.8343 110.572 31.5542C109.543 31.3675 108.701 30.9941 108.046 30.5273C107.297 30.0605 106.83 29.5003 106.455 28.9402C106.175 28.2867 105.988 27.6332 105.988 26.8863C105.988 26.1395 106.175 25.486 106.455 24.8325C106.83 24.2723 107.297 23.7122 108.046 23.2454C108.701 22.7786 109.543 22.4052 110.572 22.1251C111.601 21.9384 112.818 21.7517 114.127 21.7517ZM151.832 23.152H155.107V28.5668H167.924V31.3675H151.832V23.152ZM114.127 24.3657C113.192 24.3657 112.443 24.459 111.882 24.6458C111.227 24.7391 110.759 24.9258 110.385 25.2059C110.011 25.3926 109.73 25.6727 109.543 25.9528C109.356 26.2328 109.262 26.6063 109.262 26.8863C109.262 27.1664 109.356 27.5398 109.543 27.8199C109.73 28.1 110.011 28.3801 110.385 28.5668C110.759 28.8468 111.227 29.0336 111.882 29.1269C112.443 29.3136 113.192 29.407 114.127 29.407C114.969 29.407 115.718 29.3136 116.373 29.1269C117.028 29.0336 117.496 28.8468 117.87 28.5668C118.244 28.3801 118.525 28.1 118.712 27.8199C118.899 27.5398 118.992 27.1664 118.992 26.8863C118.992 26.6063 118.899 26.2328 118.712 25.9528C118.525 25.6727 118.244 25.3926 117.87 25.2059C117.496 24.9258 117.028 24.7391 116.373 24.6458C115.718 24.459 114.969 24.3657 114.127 24.3657ZM85.4044 25.1125H88.679V28.5668H101.403V31.3675H85.4044V25.1125Z" fill="#003B60"/>
<path fill-rule="evenodd" clip-rule="evenodd" d="M199.079 7.18848H201.792C200.857 8.30877 200.108 9.52242 199.547 10.5493C198.985 11.6696 198.518 12.7899 198.143 13.8169C197.769 14.8438 197.582 15.8707 197.395 16.8043C197.208 17.8312 197.208 18.7648 197.208 19.6984C197.208 21.6589 197.488 23.6194 198.237 25.6733C198.892 27.7271 200.108 29.8744 201.792 32.2083H199.079C198.331 31.4614 197.676 30.5279 197.021 29.5943C196.366 28.5674 195.804 27.5404 195.337 26.4201C194.775 25.3932 194.401 24.2729 194.12 23.1526C193.84 21.939 193.746 20.8187 193.746 19.6984C193.746 18.5781 193.84 17.4578 194.12 16.3375C194.401 15.2172 194.775 14.0969 195.243 13.07C195.711 11.9497 196.272 10.9228 196.927 9.9892C197.582 8.96227 198.331 8.02869 199.079 7.18848Z" fill="#003B60"/>
<path fill-rule="evenodd" clip-rule="evenodd" d="M218.542 8.21582C219.103 8.21582 219.29 8.49589 219.103 9.1494C218.261 11.1099 216.951 12.7903 215.08 14.1907C216.203 14.6575 217.326 15.1243 218.448 15.4977C219.665 15.8711 220.974 16.2446 222.378 16.5246L220.787 19.1387C219.197 18.7652 217.7 18.2984 216.296 17.8316C214.987 17.2715 213.583 16.7114 212.367 15.9645C211.151 16.618 209.747 17.1781 208.25 17.7383C206.753 18.2984 205.163 18.7652 203.385 19.3254L201.795 16.7114C203.479 16.3379 205.069 15.9645 206.566 15.4044C207.97 14.9376 209.186 14.3774 210.309 13.9106C211.338 13.3505 212.273 12.8837 212.928 12.3236C213.677 11.7634 214.145 11.2966 214.519 10.9232C213.49 10.9232 212.554 11.0165 211.618 11.0165H204.321V8.30918H215.174C216.203 8.30918 217.326 8.21582 218.542 8.21582ZM200.672 20.539H223.407V23.3397H213.864V31.6486H210.496V23.3397H200.672V20.539Z" fill="#003B60"/>
<path fill-rule="evenodd" clip-rule="evenodd" d="M222.562 7.18848H225.182C226.024 8.02869 226.773 8.96227 227.428 9.9892C228.083 10.9228 228.644 11.9497 229.112 13.07C229.58 14.0969 229.954 15.2172 230.141 16.3375C230.422 17.4578 230.609 18.5781 230.609 19.6984C230.609 20.8187 230.422 21.939 230.141 23.1526C229.86 24.2729 229.486 25.3932 229.018 26.4201C228.55 27.5404 227.989 28.5674 227.334 29.5943C226.679 30.5279 225.931 31.4614 225.182 32.2083H222.562C224.247 29.8744 225.369 27.7271 226.118 25.6733C226.773 23.6194 227.147 21.6589 227.147 19.6984C227.147 18.7648 227.053 17.8312 226.96 16.8043C226.773 15.8707 226.492 14.8438 226.211 13.8169C225.837 12.7899 225.369 11.6696 224.714 10.5493C224.153 9.52242 223.405 8.30877 222.562 7.18848Z" fill="#003B60"/>
<path fill-rule="evenodd" clip-rule="evenodd" d="M75.0195 42.29H75.9551V45.5576H79.9782V42.29H81.0074V50.5055H79.9782V46.3978H75.9551V50.5055H75.0195" fill="#FF0000"/>
<path fill-rule="evenodd" clip-rule="evenodd" d="M89.4264 42.29H90.362V47.0513C90.362 47.5181 90.362 47.8915 90.4556 48.2649C90.5491 48.545 90.6427 48.8251 90.8298 49.1051C90.9234 49.2919 91.2041 49.4786 91.3912 49.5719C91.6719 49.7586 92.0461 49.7586 92.4203 49.7586C92.7946 49.7586 93.0753 49.7586 93.3559 49.5719C93.6366 49.4786 93.8237 49.2919 94.0109 49.1051C94.1044 48.8251 94.2915 48.545 94.2915 48.2649C94.3851 47.8915 94.3851 47.5181 94.3851 47.0513V42.29H95.3207V47.1446C95.3207 47.7048 95.3207 48.0782 95.2271 48.4516C95.1336 48.8251 95.04 49.1985 94.8529 49.4786C94.5722 49.852 94.2915 50.1321 93.8237 50.3188C93.4495 50.5055 92.9817 50.5989 92.4203 50.5989C91.7654 50.5989 91.2976 50.5055 90.9234 50.3188C90.4556 50.1321 90.1749 49.852 89.8942 49.4786C89.7071 49.1985 89.6135 48.8251 89.52 48.4516C89.4264 48.0782 89.4264 47.7048 89.4264 47.1446M82.0352 42.29H83.0643L85.3098 46.1177L87.5552 42.29H88.4908L85.7776 46.8646V50.5055H84.7484V46.9579L82.0352 42.29ZM97.0983 42.29H98.5953L101.683 48.6384L102.057 49.4786V42.29H102.993V50.5055H101.589L98.3146 43.8771L97.9404 43.0369V50.5055H97.0983V42.29Z" fill="#003B60"/>
<path fill-rule="evenodd" clip-rule="evenodd" d="M107.391 42.29H108.326V46.1177L111.882 42.29H113.004L109.917 45.6509L113.285 50.5055H112.069L109.355 46.2111H109.262L108.326 47.238V50.5055H107.391" fill="#FF0000"/>
<path fill-rule="evenodd" clip-rule="evenodd" d="M132.648 42.1973C133.116 42.1973 133.584 42.1973 133.958 42.2906C134.426 42.4773 134.8 42.5707 135.081 42.8508V43.9711C135.081 43.9711 134.987 43.9711 134.987 43.8777C134.707 43.5976 134.332 43.4109 133.958 43.2242C133.584 43.0375 133.116 42.9441 132.648 42.9441C132.274 42.9441 131.806 43.0375 131.432 43.2242C131.058 43.3176 130.684 43.5976 130.403 43.8777C130.122 44.1578 129.935 44.5312 129.748 44.9046C129.654 45.3714 129.561 45.8382 129.561 46.3984C129.561 46.8651 129.561 47.4253 129.748 47.7987C129.842 48.2655 130.029 48.6389 130.309 48.919C130.59 49.1991 130.964 49.4792 131.339 49.5725C131.713 49.7592 132.181 49.8526 132.742 49.8526C133.116 49.8526 133.397 49.7592 133.584 49.7592C133.865 49.6659 134.052 49.4792 134.145 49.2924V47.1452H132.274V46.305H135.175V49.9459C134.707 50.1327 134.239 50.3194 133.865 50.5061C133.397 50.5994 133.023 50.5994 132.555 50.5994C131.9 50.5994 131.339 50.5061 130.777 50.3194C130.309 50.1327 129.935 49.8526 129.561 49.4792C129.187 49.1057 129 48.6389 128.812 48.0788C128.625 47.612 128.532 47.0519 128.532 46.3984C128.532 45.7449 128.625 45.0913 128.812 44.6246C129 44.0644 129.28 43.691 129.654 43.3176C130.029 42.9441 130.497 42.6641 130.964 42.4773C131.432 42.2906 131.993 42.1973 132.648 42.1973ZM157.348 42.1973C157.816 42.1973 158.284 42.1973 158.658 42.2906C159.126 42.4773 159.5 42.5707 159.781 42.8508V43.9711C159.781 43.9711 159.687 43.9711 159.687 43.8777C159.407 43.5976 159.032 43.4109 158.658 43.2242C158.284 43.0375 157.816 42.9441 157.348 42.9441C156.974 42.9441 156.506 43.0375 156.132 43.2242C155.758 43.3176 155.384 43.5976 155.103 43.8777C154.822 44.1578 154.635 44.5312 154.448 44.9046C154.354 45.3714 154.261 45.8382 154.261 46.3984C154.261 46.8651 154.261 47.4253 154.448 47.7987C154.541 48.2655 154.729 48.6389 155.009 48.919C155.29 49.1991 155.664 49.4792 156.038 49.5725C156.413 49.7592 156.88 49.8526 157.442 49.8526C157.816 49.8526 158.097 49.7592 158.284 49.7592C158.565 49.6659 158.752 49.4792 158.845 49.2924V47.1452H156.974V46.305H159.874V49.9459C159.407 50.1327 158.939 50.3194 158.565 50.5061C158.097 50.5994 157.723 50.5994 157.255 50.5994C156.6 50.5994 156.038 50.5061 155.477 50.3194C155.009 50.1327 154.635 49.8526 154.261 49.4792C153.887 49.1057 153.699 48.6389 153.512 48.0788C153.325 47.612 153.232 47.0519 153.232 46.3984C153.232 45.7449 153.325 45.0913 153.512 44.6246C153.699 44.0644 153.98 43.691 154.354 43.3176C154.729 42.9441 155.196 42.6641 155.664 42.4773C156.132 42.2906 156.693 42.1973 157.348 42.1973ZM205.812 42.1973C206.28 42.1973 206.748 42.1973 207.122 42.2906C207.59 42.4773 207.964 42.5707 208.245 42.8508V43.9711C208.245 43.9711 208.151 43.9711 208.151 43.8777C207.871 43.5976 207.497 43.4109 207.122 43.2242C206.748 43.0375 206.28 42.9441 205.812 42.9441C205.438 42.9441 204.97 43.0375 204.596 43.2242C204.222 43.3176 203.848 43.5976 203.567 43.8777C203.286 44.1578 203.099 44.5312 202.912 44.9046C202.819 45.3714 202.725 45.8382 202.725 46.3984C202.725 46.8651 202.725 47.4253 202.912 47.7987C203.006 48.2655 203.193 48.6389 203.473 48.919C203.754 49.1991 204.128 49.4792 204.503 49.5725C204.877 49.7592 205.345 49.8526 205.906 49.8526C206.28 49.8526 206.561 49.7592 206.748 49.7592C207.029 49.6659 207.216 49.4792 207.309 49.2924V47.1452H205.438V46.305H208.339V49.9459C207.871 50.1327 207.403 50.3194 207.029 50.5061C206.561 50.5994 206.187 50.5994 205.719 50.5994C205.064 50.5994 204.503 50.5061 203.941 50.3194C203.473 50.1327 203.099 49.8526 202.725 49.4792C202.351 49.1057 202.164 48.6389 201.977 48.0788C201.789 47.612 201.696 47.0519 201.696 46.3984C201.696 45.7449 201.789 45.0913 201.977 44.6246C202.164 44.0644 202.444 43.691 202.819 43.3176C203.193 42.9441 203.661 42.6641 204.128 42.4773C204.596 42.2906 205.158 42.1973 205.812 42.1973ZM116.182 42.2906H117.398L120.205 50.5061H119.176L118.427 48.1721H115.059L114.311 50.5061H113.375L116.182 42.2906ZM121.234 42.2906H122.731L125.819 48.6389L126.193 49.4792V42.2906H127.128V50.5061H125.725L122.45 43.8777L122.076 43.0375V50.5061H121.234V42.2906ZM139.385 42.2906H144.531V43.1308H140.32V45.6515H144.156V46.3984H140.32V49.6659H144.531V50.5061H139.385V42.2906ZM145.934 42.2906H147.431L150.518 48.6389L150.893 49.4792V42.2906H151.828V50.5061H150.425L147.15 43.8777L146.776 43.0375V50.5061H145.934V42.2906ZM161.465 42.2906H162.401V50.5061H161.465V42.2906ZM164.178 42.2906H165.675L168.763 48.6389L169.137 49.4792V42.2906H170.072V50.5061H168.669L165.394 43.8777L165.02 43.0375V50.5061H164.178V42.2906ZM171.944 42.2906H177.09V43.1308H172.879V45.6515H176.715V46.3984H172.879V49.6659H177.09V50.5061H171.944V42.2906ZM178.493 42.2906H183.639V43.1308H179.429V45.6515H183.264V46.3984H179.429V49.6659H183.639V50.5061H178.493V42.2906ZM185.042 42.2906H187.381C188.317 42.2906 189.065 42.4773 189.533 42.9441C190.001 43.3176 190.281 43.8777 190.281 44.6246C190.281 45.2781 190.094 45.8382 189.814 46.2116C189.533 46.5851 189.065 46.8651 188.504 47.0519L190.562 50.5061H189.346L187.568 47.1452H185.978V50.5061H185.042V42.2906ZM191.685 42.2906H192.62V50.5061H191.685V42.2906ZM194.398 42.2906H195.895L198.983 48.6389L199.357 49.4792V42.2906H200.292V50.5061H198.889L195.614 43.8777L195.24 43.0375V50.5061H194.398V42.2906ZM218.817 42.2906H219.753V49.6659H223.589V50.5061H218.817V42.2906ZM223.776 42.2906H230.325V43.1308H227.518V50.5061H226.583V43.1308H223.776V42.2906ZM231.448 42.2906H233.506C236.5 42.2906 237.997 43.5976 237.997 46.3984C237.997 47.0519 237.81 47.7054 237.623 48.2655C237.342 48.7323 237.062 49.1991 236.594 49.5725C236.22 49.8526 235.752 50.1327 235.19 50.3194C234.629 50.4127 233.974 50.5061 233.413 50.5061H231.448V42.2906ZM116.743 43.0375L115.34 47.4253H118.147L116.743 43.0375ZM185.978 43.0375V46.3984H187.1C187.475 46.3984 187.755 46.3984 188.036 46.305C188.317 46.305 188.597 46.2116 188.691 46.0249C188.878 45.9316 189.065 45.7449 189.159 45.4648C189.252 45.2781 189.252 44.998 189.252 44.6246C189.252 44.3445 189.252 44.1578 189.159 43.9711C189.065 43.691 188.878 43.5976 188.785 43.4109C188.597 43.3176 188.41 43.2242 188.13 43.1308C187.942 43.1308 187.755 43.0375 187.475 43.0375H185.978ZM232.384 43.0375V49.7592H233.413C234.535 49.7592 235.378 49.4792 235.939 48.919C236.594 48.3589 236.874 47.5186 236.874 46.3984C236.874 44.1578 235.752 43.0375 233.413 43.0375H232.384ZM216.104 49.1057C216.291 49.1057 216.478 49.1991 216.665 49.3858C216.759 49.5725 216.853 49.7592 216.853 50.0393C216.853 50.3194 216.853 50.5061 216.759 50.6928L216.478 51.2529C216.291 51.4397 216.198 51.533 216.011 51.7197L215.449 51.9998L215.262 51.533L215.823 51.2529L216.104 50.6928V50.5061H215.917C215.823 50.5061 215.636 50.4127 215.543 50.226C215.356 50.1327 215.262 50.0393 215.262 49.8526C215.262 49.6659 215.356 49.4792 215.543 49.2924C215.636 49.1991 215.823 49.1057 216.104 49.1057ZM210.397 49.1991C210.584 49.1991 210.771 49.2924 210.958 49.4792C211.052 49.5725 211.145 49.7592 211.145 49.9459C211.145 50.226 211.052 50.3194 210.958 50.5061C210.771 50.5994 210.584 50.6928 210.397 50.6928C210.21 50.6928 210.023 50.5994 209.836 50.5061C209.742 50.3194 209.648 50.226 209.648 49.9459C209.648 49.7592 209.742 49.5725 209.836 49.4792C210.023 49.2924 210.21 49.1991 210.397 49.1991Z" fill="#003B60"/>
<path fill-rule="evenodd" clip-rule="evenodd" d="M11.7578 29.5013V50.4757H25.6827V28.1632C21.0203 27.7742 16.3267 28.3655 11.7578 29.5169V29.5013Z" fill="url(#paint0_linear_255_273)"/>
<path fill-rule="evenodd" clip-rule="evenodd" d="M38.7812 31.9277V50.4748H52.7997V42.057C48.7298 37.9026 44.005 34.4017 38.7812 31.9433V31.9277Z" fill="url(#paint1_linear_255_273)"/>
<path fill-rule="evenodd" clip-rule="evenodd" d="M60.5646 47.6746C59.286 41.6063 56.6039 35.8493 52.8147 30.9325V13.6769L38.7807 0V20.2275C38.0634 19.9163 37.3305 19.6206 36.5976 19.3406C33.1047 18.0647 29.4091 17.3178 25.6823 17.1933V0H11.7574V19.9785C10.354 20.6631 8.99737 21.4567 7.71872 22.3747C5.55124 23.9306 3.58647 25.7822 1.90239 27.8361C1.77764 27.9917 0.0623735 30.4657 0 30.4501L0.249494 30.5279C0.779668 30.6991 2.97833 29.3921 3.49291 29.1898C11.8354 26.0001 21.0822 23.8217 29.9705 25.8289C43.2716 28.8475 54.1246 38.5255 60.9857 50.0085C60.6582 49.4639 60.6894 48.3125 60.5646 47.6901V47.6746Z" fill="url(#paint2_linear_255_273)"/>
<path fill-rule="evenodd" clip-rule="evenodd" d="M27.2422 0H37.7989L27.2578 10.5338L27.2422 0Z" fill="url(#paint3_linear_255_273)"/>
<defs>
<linearGradient id="paint0_linear_255_273" x1="2.57332" y1="6.70655" x2="30.4038" y2="63.1269" gradientUnits="userSpaceOnUse">
<stop stop-color="#007BC7"/>
<stop offset="1" stop-color="#0A3675"/>
</linearGradient>
<linearGradient id="paint1_linear_255_273" x1="21.5818" y1="-2.66123" x2="49.3967" y2="53.7591" gradientUnits="userSpaceOnUse">
<stop stop-color="#007BC7"/>
<stop offset="1" stop-color="#0A3675"/>
</linearGradient>
<linearGradient id="paint2_linear_255_273" x1="15.6246" y1="0.280074" x2="43.4395" y2="56.7004" gradientUnits="userSpaceOnUse">
<stop stop-color="#007BC7"/>
<stop offset="1" stop-color="#0A3675"/>
</linearGradient>
<linearGradient id="paint3_linear_255_273" x1="32.5283" y1="-0.466788" x2="32.5283" y2="11.6386" gradientUnits="userSpaceOnUse">
<stop stop-color="#89B824"/>
<stop offset="1" stop-color="#3D7138"/>
</linearGradient>
</defs>
</svg>
