<svg width="238" height="52" viewBox="0 0 238 52" fill="none" xmlns="http://www.w3.org/2000/svg">
<path fill-rule="evenodd" clip-rule="evenodd" d="M97.6607 7.27588H100.935V25.7457H97.6607V22.5741H94.6668V19.8689H97.7543V17.8167H94.6668V15.1116H97.6607M118.618 7.27588H121.799V13.2459H125.542V15.2048L125.635 14.6451C125.635 14.3653 125.729 13.9922 125.822 13.8056C126.103 12.6862 126.571 11.7534 127.132 11.0072C127.694 10.2609 128.348 9.60793 129.19 9.2348C129.939 8.86167 130.781 8.67511 131.81 8.67511C132.746 8.67511 133.588 8.86167 134.43 9.2348C135.178 9.60793 135.927 10.2609 136.488 11.0072C137.05 11.7534 137.424 12.6862 137.798 13.8056C138.079 14.8317 138.172 16.1377 138.172 17.5369C138.172 18.9361 138.079 20.2421 137.798 21.3614C137.424 22.4808 137.05 23.4136 136.488 24.1599C135.927 24.9062 135.178 25.4658 134.43 25.839C133.588 26.2121 132.746 26.3987 131.81 26.3987C130.781 26.3987 129.939 26.2121 129.19 25.839C128.348 25.4658 127.694 24.9062 127.132 24.1599C126.571 23.4136 126.103 22.4808 125.822 21.3614C125.542 20.2421 125.355 18.9361 125.355 17.5369V16.5108L125.448 16.0444H121.799V21.7346H118.618V7.27588ZM141.634 7.27588H144.909V31.809H141.634V7.27588ZM164.369 7.27588H167.457V25.7457H164.369V7.27588ZM185.607 7.27588H188.882V31.809H185.607V7.27588ZM83.8139 7.46244H92.5149V10.0743H83.8139V7.46244ZM159.598 7.55573H162.685V25.186H159.598V15.9511H157.726C157.633 16.7906 157.446 17.4436 157.071 18.0966C156.791 18.6563 156.416 19.216 155.949 19.5891C155.481 20.0555 154.92 20.3353 154.358 20.5219C153.703 20.8018 153.142 20.895 152.487 20.895C151.738 20.895 150.99 20.7085 150.429 20.4286C149.774 20.1488 149.119 19.7757 148.651 19.216C148.183 18.7496 147.809 18.0966 147.528 17.257C147.248 16.5108 147.154 15.6712 147.154 14.6451C147.154 13.619 147.248 12.7795 147.528 12.0333C147.809 11.1937 148.183 10.5407 148.651 10.0743C149.119 9.51464 149.774 9.14152 150.429 8.86167C150.99 8.58183 151.738 8.39526 152.487 8.39526C153.142 8.39526 153.703 8.48854 154.358 8.76839C154.92 8.95495 155.387 9.2348 155.855 9.70121C156.323 10.0743 156.697 10.5407 157.071 11.1937C157.352 11.7534 157.539 12.4064 157.726 13.1526H159.598V7.55573ZM116.092 8.30198C115.905 9.79449 115.624 11.287 115.063 12.5929C114.502 13.9922 113.66 15.2048 112.724 16.4175C111.788 17.5369 110.572 18.4697 109.169 19.4025C107.765 20.2421 106.175 20.9883 104.397 21.4547L102.526 19.1227C105.426 18.1899 107.765 17.0705 109.356 15.6712C110.946 14.3653 111.882 12.7795 112.256 11.0072H104.116V8.30198H116.092ZM181.771 9.32808C181.678 10.8206 181.491 12.3131 181.023 13.8056C180.649 15.2981 179.994 16.6974 179.245 18.0966C179.994 19.216 180.929 20.2421 181.958 21.2682C182.894 22.201 184.017 23.1338 185.233 23.9733L182.894 26.3054C181.865 25.4658 180.836 24.6263 179.994 23.6935C179.152 22.7607 178.31 21.8279 177.467 20.7085C176.532 22.0144 175.503 23.1338 174.38 24.2532C173.164 25.2793 171.947 26.2121 170.638 26.9584L168.392 24.9062C169.983 23.9733 171.293 22.9472 172.509 21.9211C173.632 20.8018 174.661 19.6824 175.409 18.4697C176.251 17.3503 176.813 16.2309 177.28 15.1116C177.655 13.9922 177.935 13.0594 178.029 12.1265C177.187 12.2198 176.345 12.2198 175.409 12.2198H170.076V9.42136H177.748C178.871 9.32808 180.274 9.32808 181.771 9.32808ZM152.487 11.1004C151.832 11.1004 151.271 11.3803 150.803 11.94C150.429 12.5929 150.242 13.4325 150.242 14.6451C150.242 15.8578 150.429 16.7906 150.803 17.3503C151.271 17.91 151.832 18.1899 152.487 18.1899C153.142 18.1899 153.703 17.91 154.077 17.3503C154.545 16.7906 154.732 15.8578 154.732 14.6451C154.732 13.4325 154.545 12.5929 154.077 11.94C153.703 11.3803 153.142 11.1004 152.487 11.1004ZM80.6328 11.3803H95.5089V13.8989H80.6328V11.3803ZM131.81 11.4736C130.781 11.4736 130.033 12.0333 129.471 13.0594C128.91 14.1787 128.723 15.6712 128.723 17.5369C128.723 19.4958 128.91 20.895 129.471 22.0144C130.033 23.0405 130.781 23.6002 131.81 23.6002C132.746 23.6002 133.494 23.0405 134.056 22.0144C134.617 20.895 134.898 19.4958 134.898 17.5369C134.898 15.578 134.617 14.1787 134.056 13.0594C133.494 12.0333 132.746 11.4736 131.81 11.4736ZM88.1176 14.6451C89.0532 14.6451 89.8953 14.8317 90.6437 15.0183C91.2987 15.2981 91.9536 15.578 92.4214 16.0444C92.8892 16.4175 93.2634 16.8839 93.5441 17.4436C93.7312 17.91 93.9183 18.4697 93.9183 19.0294C93.9183 19.5891 93.7312 20.1488 93.5441 20.7085C93.2634 21.1749 92.8892 21.7346 92.4214 22.1077C91.9536 22.4808 91.2987 22.854 90.6437 23.1338C89.8953 23.3204 89.0532 23.5069 88.1176 23.5069C87.182 23.5069 86.34 23.3204 85.5915 23.1338C84.843 22.854 84.2817 22.4808 83.8139 22.1077C83.2525 21.7346 82.8783 21.1749 82.6911 20.7085C82.4105 20.1488 82.3169 19.5891 82.3169 19.0294C82.3169 18.4697 82.4105 17.91 82.6911 17.4436C82.8783 16.8839 83.2525 16.4175 83.8139 16.0444C84.2817 15.578 84.843 15.2981 85.5915 15.0183C86.34 14.8317 87.182 14.6451 88.1176 14.6451ZM88.1176 17.0705C87.0885 17.0705 86.34 17.257 85.9657 17.6302C85.5915 18.0033 85.3108 18.4697 85.3108 19.0294C85.3108 19.5891 85.5915 20.0555 85.9657 20.4286C86.34 20.8018 87.0885 20.9883 88.1176 20.9883C89.0532 20.9883 89.7081 20.8018 90.1759 20.4286C90.6437 20.0555 90.8309 19.5891 90.8309 19.0294C90.8309 18.4697 90.6437 18.0033 90.1759 17.6302C89.8017 17.257 89.0532 17.0705 88.1176 17.0705ZM114.127 21.7346C115.437 21.7346 116.653 21.9211 117.683 22.1077C118.712 22.3875 119.554 22.7607 120.209 23.2271C120.957 23.6935 121.425 24.2532 121.799 24.8129C122.173 25.4658 122.361 26.1188 122.361 26.8651C122.361 27.6113 122.173 28.2643 121.799 28.9173C121.425 29.477 120.957 30.0367 120.209 30.5031C119.554 30.9695 118.712 31.3426 117.683 31.5292C116.653 31.809 115.437 31.9956 114.127 31.9956C112.817 31.9956 111.601 31.809 110.572 31.5292C109.543 31.3426 108.701 30.9695 108.046 30.5031C107.297 30.0367 106.83 29.477 106.455 28.9173C106.175 28.2643 105.988 27.6113 105.988 26.8651C105.988 26.1188 106.175 25.4658 106.455 24.8129C106.83 24.2532 107.297 23.6935 108.046 23.2271C108.701 22.7607 109.543 22.3875 110.572 22.1077C111.601 21.9211 112.817 21.7346 114.127 21.7346ZM151.832 23.1338H155.107V28.5441H167.924V31.3426H151.832V23.1338ZM114.127 24.3465C113.192 24.3465 112.443 24.4397 111.882 24.6263C111.227 24.7196 110.759 24.9062 110.385 25.186C110.011 25.3726 109.73 25.6524 109.543 25.9323C109.356 26.2121 109.262 26.5852 109.262 26.8651C109.262 27.1449 109.356 27.518 109.543 27.7979C109.73 28.0777 110.011 28.3576 110.385 28.5441C110.759 28.824 111.227 29.0106 111.882 29.1038C112.443 29.2904 113.192 29.3837 114.127 29.3837C114.969 29.3837 115.718 29.2904 116.373 29.1038C117.028 29.0106 117.495 28.824 117.87 28.5441C118.244 28.3576 118.525 28.0777 118.712 27.7979C118.899 27.518 118.992 27.1449 118.992 26.8651C118.992 26.5852 118.899 26.2121 118.712 25.9323C118.525 25.6524 118.244 25.3726 117.87 25.186C117.495 24.9062 117.028 24.7196 116.373 24.6263C115.718 24.4397 114.969 24.3465 114.127 24.3465ZM85.4044 25.0927H88.679V28.5441H101.403V31.3426H85.4044V25.0927Z" fill="white"/>
<path fill-rule="evenodd" clip-rule="evenodd" d="M199.083 7.18311H201.796C200.861 8.30249 200.112 9.51515 199.551 10.5413C198.989 11.6606 198.522 12.78 198.147 13.8061C197.773 14.8322 197.586 15.8583 197.399 16.7911C197.212 17.8172 197.212 18.7501 197.212 19.6829C197.212 21.6418 197.492 23.6007 198.241 25.6529C198.896 27.7051 200.112 29.8506 201.796 32.1827H199.083C198.334 31.4364 197.68 30.5036 197.025 29.5708C196.37 28.5447 195.808 27.5186 195.341 26.3992C194.779 25.3731 194.405 24.2537 194.124 23.1343C193.844 21.9216 193.75 20.8023 193.75 19.6829C193.75 18.5635 193.844 17.4441 194.124 16.3247C194.405 15.2053 194.779 14.086 195.247 13.0599C195.715 11.9405 196.276 10.9144 196.931 9.98156C197.586 8.95546 198.334 8.02264 199.083 7.18311Z" fill="white"/>
<path fill-rule="evenodd" clip-rule="evenodd" d="M218.542 8.20947C219.103 8.20947 219.29 8.48932 219.103 9.14229C218.261 11.1012 216.951 12.7803 215.08 14.1795C216.203 14.6459 217.326 15.1123 218.448 15.4855C219.665 15.8586 220.974 16.2317 222.378 16.5116L220.787 19.1235C219.197 18.7503 217.7 18.2839 216.296 17.8175C214.987 17.2578 213.583 16.6981 212.367 15.9519C211.151 16.6048 209.747 17.1645 208.25 17.7242C206.753 18.2839 205.163 18.7503 203.385 19.31L201.795 16.6981C203.479 16.325 205.069 15.9519 206.566 15.3922C207.97 14.9258 209.186 14.3661 210.309 13.8997C211.338 13.34 212.273 12.8736 212.928 12.3139C213.677 11.7542 214.145 11.2878 214.519 10.9146C213.49 10.9146 212.554 11.0079 211.618 11.0079H204.321V8.30275H215.174C216.203 8.30275 217.326 8.20947 218.542 8.20947ZM200.672 20.5227H223.407V23.3211H213.864V31.6232H210.496V23.3211H200.672V20.5227Z" fill="white"/>
<path fill-rule="evenodd" clip-rule="evenodd" d="M222.566 7.18311H225.186C226.028 8.02264 226.777 8.95546 227.432 9.98156C228.086 10.9144 228.648 11.9405 229.116 13.0599C229.583 14.086 229.958 15.2053 230.145 16.3247C230.425 17.4441 230.613 18.5635 230.613 19.6829C230.613 20.8023 230.425 21.9216 230.145 23.1343C229.864 24.2537 229.49 25.3731 229.022 26.3992C228.554 27.5186 227.993 28.5447 227.338 29.5708C226.683 30.5036 225.935 31.4364 225.186 32.1827H222.566C224.25 29.8506 225.373 27.7051 226.122 25.6529C226.777 23.6007 227.151 21.6418 227.151 19.6829C227.151 18.7501 227.057 17.8172 226.964 16.7911C226.777 15.8583 226.496 14.8322 226.215 13.8061C225.841 12.78 225.373 11.6606 224.718 10.5413C224.157 9.51515 223.408 8.30249 222.566 7.18311Z" fill="white"/>
<path fill-rule="evenodd" clip-rule="evenodd" d="M75.0195 42.2563H75.9551V45.5212H79.9782V42.2563H81.0074V50.4652H79.9782V46.3607H75.9551V50.4652H75.0195" fill="white"/>
<path fill-rule="evenodd" clip-rule="evenodd" d="M89.4303 42.2563H90.3659V47.0137C90.3659 47.4801 90.3659 47.8533 90.4595 48.2264C90.553 48.5062 90.6466 48.7861 90.8337 49.0659C90.9273 49.2525 91.2079 49.4391 91.3951 49.5323C91.6757 49.7189 92.05 49.7189 92.4242 49.7189C92.7985 49.7189 93.0791 49.7189 93.3598 49.5323C93.6405 49.4391 93.8276 49.2525 94.0148 49.0659C94.1083 48.7861 94.2954 48.5062 94.2954 48.2264C94.389 47.8533 94.389 47.4801 94.389 47.0137V42.2563H95.3246V47.107C95.3246 47.6667 95.3246 48.0398 95.231 48.413C95.1375 48.7861 95.0439 49.1592 94.8568 49.4391C94.5761 49.8122 94.2954 50.092 93.8276 50.2786C93.4534 50.4652 92.9856 50.5584 92.4242 50.5584C91.7693 50.5584 91.3015 50.4652 90.9273 50.2786C90.4595 50.092 90.1788 49.8122 89.8981 49.4391C89.711 49.1592 89.6174 48.7861 89.5239 48.413C89.4303 48.0398 89.4303 47.6667 89.4303 47.107M82.0391 42.2563H83.0682L85.3137 46.0809L87.5591 42.2563H88.4947L85.7815 46.8272V50.4652H84.7523V46.9204L82.0391 42.2563ZM97.1022 42.2563H98.5992L101.687 48.5995L102.061 49.4391V42.2563H102.997V50.4652H101.593L98.3185 43.8421L97.9443 43.0026V50.4652H97.1022V42.2563Z" fill="white"/>
<path fill-rule="evenodd" clip-rule="evenodd" d="M107.391 42.2563H108.326V46.0809L111.882 42.2563H113.004L109.917 45.6145L113.285 50.4652H112.069L109.355 46.1742H109.262L108.326 47.2003V50.4652H107.391" fill="white"/>
<path fill-rule="evenodd" clip-rule="evenodd" d="M132.652 42.1621C133.12 42.1621 133.588 42.1621 133.962 42.2554C134.43 42.442 134.804 42.5352 135.085 42.8151V43.9345C135.085 43.9345 134.991 43.9345 134.991 43.8412C134.711 43.5613 134.336 43.3748 133.962 43.1882C133.588 43.0016 133.12 42.9084 132.652 42.9084C132.278 42.9084 131.81 43.0016 131.436 43.1882C131.062 43.2815 130.688 43.5613 130.407 43.8412C130.126 44.121 129.939 44.4942 129.752 44.8673C129.658 45.3337 129.565 45.8001 129.565 46.3598C129.565 46.8262 129.565 47.3859 129.752 47.759C129.845 48.2254 130.033 48.5986 130.313 48.8784C130.594 49.1583 130.968 49.4381 131.342 49.5314C131.717 49.7179 132.184 49.8112 132.746 49.8112C133.12 49.8112 133.401 49.7179 133.588 49.7179C133.869 49.6247 134.056 49.4381 134.149 49.2515V47.106H132.278V46.2665H135.178V49.9045C134.711 50.0911 134.243 50.2776 133.869 50.4642C133.401 50.5575 133.027 50.5575 132.559 50.5575C131.904 50.5575 131.342 50.4642 130.781 50.2776C130.313 50.0911 129.939 49.8112 129.565 49.4381C129.191 49.065 129.003 48.5986 128.816 48.0389C128.629 47.5725 128.536 47.0128 128.536 46.3598C128.536 45.7068 128.629 45.0538 128.816 44.5874C129.003 44.0277 129.284 43.6546 129.658 43.2815C130.033 42.9084 130.5 42.6285 130.968 42.442C131.436 42.2554 131.997 42.1621 132.652 42.1621ZM157.352 42.1621C157.82 42.1621 158.288 42.1621 158.662 42.2554C159.13 42.442 159.504 42.5352 159.785 42.8151V43.9345C159.785 43.9345 159.691 43.9345 159.691 43.8412C159.41 43.5613 159.036 43.3748 158.662 43.1882C158.288 43.0016 157.82 42.9084 157.352 42.9084C156.978 42.9084 156.51 43.0016 156.136 43.1882C155.762 43.2815 155.387 43.5613 155.107 43.8412C154.826 44.121 154.639 44.4942 154.452 44.8673C154.358 45.3337 154.265 45.8001 154.265 46.3598C154.265 46.8262 154.265 47.3859 154.452 47.759C154.545 48.2254 154.732 48.5986 155.013 48.8784C155.294 49.1583 155.668 49.4381 156.042 49.5314C156.417 49.7179 156.884 49.8112 157.446 49.8112C157.82 49.8112 158.101 49.7179 158.288 49.7179C158.568 49.6247 158.756 49.4381 158.849 49.2515V47.106H156.978V46.2665H159.878V49.9045C159.41 50.0911 158.943 50.2776 158.568 50.4642C158.101 50.5575 157.726 50.5575 157.259 50.5575C156.604 50.5575 156.042 50.4642 155.481 50.2776C155.013 50.0911 154.639 49.8112 154.265 49.4381C153.89 49.065 153.703 48.5986 153.516 48.0389C153.329 47.5725 153.235 47.0128 153.235 46.3598C153.235 45.7068 153.329 45.0538 153.516 44.5874C153.703 44.0277 153.984 43.6546 154.358 43.2815C154.732 42.9084 155.2 42.6285 155.668 42.442C156.136 42.2554 156.697 42.1621 157.352 42.1621ZM205.816 42.1621C206.284 42.1621 206.752 42.1621 207.126 42.2554C207.594 42.442 207.968 42.5352 208.249 42.8151V43.9345C208.249 43.9345 208.155 43.9345 208.155 43.8412C207.875 43.5613 207.5 43.3748 207.126 43.1882C206.752 43.0016 206.284 42.9084 205.816 42.9084C205.442 42.9084 204.974 43.0016 204.6 43.1882C204.226 43.2815 203.851 43.5613 203.571 43.8412C203.29 44.121 203.103 44.4942 202.916 44.8673C202.822 45.3337 202.729 45.8001 202.729 46.3598C202.729 46.8262 202.729 47.3859 202.916 47.759C203.009 48.2254 203.197 48.5986 203.477 48.8784C203.758 49.1583 204.132 49.4381 204.506 49.5314C204.881 49.7179 205.348 49.8112 205.91 49.8112C206.284 49.8112 206.565 49.7179 206.752 49.7179C207.033 49.6247 207.22 49.4381 207.313 49.2515V47.106H205.442V46.2665H208.342V49.9045C207.875 50.0911 207.407 50.2776 207.033 50.4642C206.565 50.5575 206.19 50.5575 205.723 50.5575C205.068 50.5575 204.506 50.4642 203.945 50.2776C203.477 50.0911 203.103 49.8112 202.729 49.4381C202.355 49.065 202.167 48.5986 201.98 48.0389C201.793 47.5725 201.7 47.0128 201.7 46.3598C201.7 45.7068 201.793 45.0538 201.98 44.5874C202.167 44.0277 202.448 43.6546 202.822 43.2815C203.197 42.9084 203.664 42.6285 204.132 42.442C204.6 42.2554 205.161 42.1621 205.816 42.1621ZM116.186 42.2554H117.402L120.209 50.4642H119.18L118.431 48.1321H115.063L114.315 50.4642H113.379L116.186 42.2554ZM121.238 42.2554H122.735L125.822 48.5986L126.197 49.4381V42.2554H127.132V50.4642H125.729L122.454 43.8412L122.08 43.0016V50.4642H121.238V42.2554ZM139.389 42.2554H144.534V43.0949H140.324V45.6135H144.16V46.3598H140.324V49.6247H144.534V50.4642H139.389V42.2554ZM145.938 42.2554H147.435L150.522 48.5986L150.896 49.4381V42.2554H151.832V50.4642H150.429L147.154 43.8412L146.78 43.0016V50.4642H145.938V42.2554ZM161.469 42.2554H162.404V50.4642H161.469V42.2554ZM164.182 42.2554H165.679L168.766 48.5986L169.141 49.4381V42.2554H170.076V50.4642H168.673L165.398 43.8412L165.024 43.0016V50.4642H164.182V42.2554ZM171.947 42.2554H177.093V43.0949H172.883V45.6135H176.719V46.3598H172.883V49.6247H177.093V50.4642H171.947V42.2554ZM178.497 42.2554H183.643V43.0949H179.432V45.6135H183.268V46.3598H179.432V49.6247H183.643V50.4642H178.497V42.2554ZM185.046 42.2554H187.385C188.321 42.2554 189.069 42.442 189.537 42.9084C190.005 43.2815 190.285 43.8412 190.285 44.5874C190.285 45.2404 190.098 45.8001 189.817 46.1732C189.537 46.5464 189.069 46.8262 188.508 47.0128L190.566 50.4642H189.35L187.572 47.106H185.982V50.4642H185.046V42.2554ZM191.689 42.2554H192.624V50.4642H191.689V42.2554ZM194.402 42.2554H195.899L198.986 48.5986L199.361 49.4381V42.2554H200.296V50.4642H198.893L195.618 43.8412L195.244 43.0016V50.4642H194.402V42.2554ZM218.821 42.2554H219.757V49.6247H223.593V50.4642H218.821V42.2554ZM223.78 42.2554H230.329V43.0949H227.522V50.4642H226.587V43.0949H223.78V42.2554ZM231.452 42.2554H233.51C236.504 42.2554 238.001 43.5613 238.001 46.3598C238.001 47.0128 237.814 47.6657 237.627 48.2254C237.346 48.6918 237.065 49.1583 236.597 49.5314C236.223 49.8112 235.755 50.0911 235.194 50.2776C234.633 50.3709 233.978 50.4642 233.416 50.4642H231.452V42.2554ZM116.747 43.0016L115.344 47.3859H118.15L116.747 43.0016ZM185.982 43.0016V46.3598H187.104C187.478 46.3598 187.759 46.3598 188.04 46.2665C188.321 46.2665 188.601 46.1732 188.695 45.9867C188.882 45.8934 189.069 45.7068 189.163 45.427C189.256 45.2404 189.256 44.9606 189.256 44.5874C189.256 44.3076 189.256 44.121 189.163 43.9345C189.069 43.6546 188.882 43.5613 188.788 43.3748C188.601 43.2815 188.414 43.1882 188.133 43.0949C187.946 43.0949 187.759 43.0016 187.478 43.0016H185.982ZM232.387 43.0016V49.7179H233.416C234.539 49.7179 235.381 49.4381 235.943 48.8784C236.597 48.3187 236.878 47.4792 236.878 46.3598C236.878 44.121 235.755 43.0016 233.416 43.0016H232.387ZM216.108 49.065C216.295 49.065 216.482 49.1582 216.669 49.3448C216.763 49.5314 216.856 49.7179 216.856 49.9978C216.856 50.2776 216.856 50.4642 216.763 50.6508L216.482 51.2104C216.295 51.397 216.201 51.4903 216.014 51.6769L215.453 51.9567L215.266 51.4903L215.827 51.2104L216.108 50.6508V50.4642H215.921C215.827 50.4642 215.64 50.3709 215.546 50.1843C215.359 50.0911 215.266 49.9978 215.266 49.8112C215.266 49.6247 215.359 49.4381 215.546 49.2515C215.64 49.1582 215.827 49.065 216.108 49.065ZM210.401 49.1583C210.588 49.1583 210.775 49.2515 210.962 49.4381C211.056 49.5314 211.149 49.7179 211.149 49.9045C211.149 50.1843 211.056 50.2776 210.962 50.4642C210.775 50.5575 210.588 50.6508 210.401 50.6508C210.214 50.6508 210.026 50.5575 209.839 50.4642C209.746 50.2776 209.652 50.1843 209.652 49.9045C209.652 49.7179 209.746 49.5314 209.839 49.4381C210.026 49.2515 210.214 49.1583 210.401 49.1583Z" fill="white"/>
<path fill-rule="evenodd" clip-rule="evenodd" d="M11.7578 29.4772V50.4346H25.6827V28.1402C21.0203 27.7515 16.3267 28.3423 11.7578 29.4928V29.4772Z" fill="url(#paint0_linear_241_2663)"/>
<path fill-rule="evenodd" clip-rule="evenodd" d="M38.7812 31.9028V50.4348H52.7997V42.0239C48.7298 37.8729 44.005 34.3748 38.7812 31.9184V31.9028Z" fill="url(#paint1_linear_241_2663)"/>
<path fill-rule="evenodd" clip-rule="evenodd" d="M60.5645 47.636C59.2859 41.5726 56.6038 35.8202 52.8147 30.9074V13.6658L38.7806 0V20.2111C38.0634 19.9001 37.3305 19.6047 36.5976 19.3249C33.1047 18.05 29.409 17.3038 25.6822 17.1794V0H11.7574V19.9623C10.354 20.6464 8.99736 21.4393 7.7187 22.3566C5.55123 23.9113 3.58647 25.7613 1.90239 27.8136C1.77764 27.969 0.0623734 30.441 0 30.4254L0.249493 30.5032C0.779667 30.6742 2.97833 29.3682 3.49291 29.1661C11.8353 25.979 21.0822 23.8024 29.9704 25.808C43.2715 28.8241 54.1245 38.4943 60.9856 49.968C60.6581 49.4239 60.6893 48.2734 60.5645 47.6515V47.636Z" fill="url(#paint2_linear_241_2663)"/>
<path fill-rule="evenodd" clip-rule="evenodd" d="M27.2422 0H37.7989L27.2578 10.5253L27.2422 0Z" fill="url(#paint3_linear_241_2663)"/>
<defs>
<linearGradient id="paint0_linear_241_2663" x1="2.57333" y1="6.70089" x2="30.3676" y2="63.0934" gradientUnits="userSpaceOnUse">
<stop stop-color="white"/>
<stop offset="1" stop-color="white"/>
</linearGradient>
<linearGradient id="paint1_linear_241_2663" x1="21.5818" y1="-2.6581" x2="49.3605" y2="53.7343" gradientUnits="userSpaceOnUse">
<stop stop-color="white"/>
<stop offset="1" stop-color="white"/>
</linearGradient>
<linearGradient id="paint2_linear_241_2663" x1="15.6245" y1="0.279847" x2="43.4032" y2="56.6723" gradientUnits="userSpaceOnUse">
<stop stop-color="white"/>
<stop offset="1" stop-color="white"/>
</linearGradient>
<linearGradient id="paint3_linear_241_2663" x1="32.5283" y1="-0.466409" x2="32.5283" y2="11.6291" gradientUnits="userSpaceOnUse">
<stop stop-color="white"/>
<stop offset="1" stop-color="white"/>
</linearGradient>
</defs>
</svg>
