<svg width="568" height="124" viewBox="0 0 568 124" fill="none" xmlns="http://www.w3.org/2000/svg">
<g clip-path="url(#clip0_241_508)">
<path fill-rule="evenodd" clip-rule="evenodd" d="M233.071 17.3643H240.886V61.4433H233.071V53.8741H225.926V47.4181H233.295V42.5205H225.926V36.0644H233.071M283.087 17.3643H290.679V31.612H299.61V36.2871L299.834 34.9513C299.834 34.2835 300.057 33.393 300.28 32.9477C300.95 30.2763 302.067 28.0501 303.406 26.2691C304.746 24.4881 306.309 22.9298 308.319 22.0393C310.105 21.1488 312.114 20.7036 314.571 20.7036C316.803 20.7036 318.813 21.1488 320.823 22.0393C322.609 22.9298 324.395 24.4881 325.735 26.2691C327.074 28.0501 327.968 30.2763 328.861 32.9477C329.531 35.3966 329.754 38.5133 329.754 41.8526C329.754 45.1919 329.531 48.3086 328.861 50.9801C327.968 53.6515 327.074 55.8777 325.735 57.6587C324.395 59.4397 322.609 60.7754 320.823 61.6659C318.813 62.5564 316.803 63.0016 314.571 63.0016C312.114 63.0016 310.105 62.5564 308.319 61.6659C306.309 60.7754 304.746 59.4397 303.406 57.6587C302.067 55.8777 300.95 53.6515 300.28 50.9801C299.61 48.3086 299.164 45.1919 299.164 41.8526V39.4038L299.387 38.2906H290.679V51.8705H283.087V17.3643ZM338.015 17.3643H345.83V75.9136H338.015V17.3643ZM392.274 17.3643H399.642V61.4433H392.274V17.3643ZM442.959 17.3643H450.774V75.9136H442.959V17.3643ZM200.025 17.8095H220.791V24.0429H200.025V17.8095ZM380.886 18.0321H388.255V60.1075H380.886V38.068H376.421C376.197 40.0716 375.751 41.63 374.858 43.1883C374.188 44.524 373.295 45.8598 372.178 46.7503C371.062 47.8634 369.722 48.5312 368.382 48.9765C366.819 49.6443 365.48 49.867 363.917 49.867C362.13 49.867 360.344 49.4217 359.004 48.7539C357.441 48.086 355.878 47.1955 354.762 45.8598C353.645 44.7467 352.752 43.1883 352.082 41.1847C351.413 39.4038 351.189 37.4002 351.189 34.9513C351.189 32.5025 351.413 30.4989 352.082 28.7179C352.752 26.7143 353.645 25.156 354.762 24.0429C355.878 22.7072 357.441 21.8167 359.004 21.1488C360.344 20.481 362.13 20.0357 363.917 20.0357C365.48 20.0357 366.819 20.2583 368.382 20.9262C369.722 21.3714 370.838 22.0393 371.955 23.1524C373.071 24.0429 373.964 25.156 374.858 26.7143C375.527 28.0501 375.974 29.6084 376.421 31.3894H380.886V18.0321ZM277.059 19.8131C276.612 23.375 275.942 26.937 274.603 30.0537C273.263 33.393 271.253 36.2871 269.02 39.1811C266.788 41.8526 263.885 44.0788 260.536 46.305C257.186 48.3086 253.39 50.0896 249.148 51.2027L244.682 45.6372C251.604 43.4109 257.186 40.7395 260.982 37.4002C264.778 34.2835 267.011 30.4989 267.904 26.2691H248.478V19.8131H277.059ZM433.805 22.2619C433.581 25.8239 433.135 29.3858 432.018 32.9477C431.125 36.5097 429.562 39.849 427.776 43.1883C429.562 45.8598 431.795 48.3086 434.251 50.7574C436.484 52.9837 439.164 55.2099 442.066 57.2135L436.484 62.779C434.028 60.7754 431.572 58.7718 429.562 56.5456C427.553 54.3194 425.543 52.0932 423.534 49.4217C421.301 52.5384 418.845 55.2099 416.165 57.8813C413.263 60.3302 410.36 62.5564 407.234 64.3373L401.875 59.4397C405.671 57.2135 408.797 54.7646 411.7 52.3158C414.379 49.6443 416.835 46.9729 418.621 44.0788C420.631 41.4073 421.971 38.7359 423.087 36.0644C423.98 33.393 424.65 31.1668 424.873 28.9406C422.864 29.1632 420.854 29.1632 418.621 29.1632H405.894V22.4845H424.203C426.883 22.2619 430.232 22.2619 433.805 22.2619ZM363.917 26.4917C362.354 26.4917 361.014 27.1596 359.897 28.4953C359.004 30.0537 358.558 32.0573 358.558 34.9513C358.558 37.8454 359.004 40.0716 359.897 41.4073C361.014 42.7431 362.354 43.4109 363.917 43.4109C365.48 43.4109 366.819 42.7431 367.712 41.4073C368.829 40.0716 369.275 37.8454 369.275 34.9513C369.275 32.0573 368.829 30.0537 367.712 28.4953C366.819 27.1596 365.48 26.4917 363.917 26.4917ZM192.434 27.1596H227.936V33.1704H192.434V27.1596ZM314.571 27.3822C312.114 27.3822 310.328 28.7179 308.988 31.1668C307.649 33.8382 307.202 37.4002 307.202 41.8526C307.202 46.5276 307.649 49.867 308.988 52.5384C310.328 54.9872 312.114 56.323 314.571 56.323C316.803 56.323 318.59 54.9872 319.929 52.5384C321.269 49.867 321.939 46.5276 321.939 41.8526C321.939 37.1775 321.269 33.8382 319.929 31.1668C318.59 28.7179 316.803 27.3822 314.571 27.3822ZM210.296 34.9513C212.529 34.9513 214.539 35.3966 216.325 35.8418C217.888 36.5097 219.451 37.1775 220.568 38.2906C221.684 39.1811 222.577 40.2942 223.247 41.63C223.694 42.7431 224.14 44.0788 224.14 45.4145C224.14 46.7503 223.694 48.086 223.247 49.4217C222.577 50.5348 221.684 51.8705 220.568 52.761C219.451 53.6515 217.888 54.542 216.325 55.2099C214.539 55.6551 212.529 56.1003 210.296 56.1003C208.064 56.1003 206.054 55.6551 204.268 55.2099C202.481 54.542 201.142 53.6515 200.025 52.761C198.686 51.8705 197.792 50.5348 197.346 49.4217C196.676 48.086 196.453 46.7503 196.453 45.4145C196.453 44.0788 196.676 42.7431 197.346 41.63C197.792 40.2942 198.686 39.1811 200.025 38.2906C201.142 37.1775 202.481 36.5097 204.268 35.8418C206.054 35.3966 208.064 34.9513 210.296 34.9513ZM210.296 40.7395C207.84 40.7395 206.054 41.1847 205.161 42.0752C204.268 42.9657 203.598 44.0788 203.598 45.4145C203.598 46.7503 204.268 47.8634 205.161 48.7539C206.054 49.6443 207.84 50.0896 210.296 50.0896C212.529 50.0896 214.092 49.6443 215.209 48.7539C216.325 47.8634 216.772 46.7503 216.772 45.4145C216.772 44.0788 216.325 42.9657 215.209 42.0752C214.316 41.1847 212.529 40.7395 210.296 40.7395ZM272.37 51.8705C275.496 51.8705 278.398 52.3158 280.854 52.761C283.311 53.4289 285.32 54.3194 286.883 55.4325C288.669 56.5456 289.786 57.8813 290.679 59.217C291.572 60.7754 292.019 62.3337 292.019 64.1147C292.019 65.8957 291.572 67.454 290.679 69.0124C289.786 70.3481 288.669 71.6838 286.883 72.7969C285.32 73.91 283.311 74.8005 280.854 75.2458C278.398 75.9136 275.496 76.3589 272.37 76.3589C269.244 76.3589 266.341 75.9136 263.885 75.2458C261.429 74.8005 259.419 73.91 257.856 72.7969C256.07 71.6838 254.953 70.3481 254.06 69.0124C253.39 67.454 252.944 65.8957 252.944 64.1147C252.944 62.3337 253.39 60.7754 254.06 59.217C254.953 57.8813 256.07 56.5456 257.856 55.4325C259.419 54.3194 261.429 53.4289 263.885 52.761C266.341 52.3158 269.244 51.8705 272.37 51.8705ZM362.354 55.2099H370.169V68.1219H400.759V74.8005H362.354V55.2099ZM272.37 58.1039C270.137 58.1039 268.351 58.3266 267.011 58.7718C265.448 58.9944 264.331 59.4397 263.438 60.1075C262.545 60.5528 261.875 61.2206 261.429 61.8885C260.982 62.5564 260.759 63.4468 260.759 64.1147C260.759 64.7826 260.982 65.6731 261.429 66.3409C261.875 67.0088 262.545 67.6767 263.438 68.1219C264.331 68.7898 265.448 69.235 267.011 69.4576C268.351 69.9029 270.137 70.1255 272.37 70.1255C274.379 70.1255 276.165 69.9029 277.728 69.4576C279.291 69.235 280.408 68.7898 281.301 68.1219C282.194 67.6767 282.864 67.0088 283.311 66.3409C283.757 65.6731 283.98 64.7826 283.98 64.1147C283.98 63.4468 283.757 62.5564 283.311 61.8885C282.864 61.2206 282.194 60.5528 281.301 60.1075C280.408 59.4397 279.291 58.9944 277.728 58.7718C276.165 58.3266 274.379 58.1039 272.37 58.1039ZM203.821 59.8849H211.636V68.1219H242.003V74.8005H203.821V59.8849Z" fill="#003B60"/>
<path fill-rule="evenodd" clip-rule="evenodd" d="M475.114 17.1416H481.589C479.356 19.8131 477.57 22.7071 476.23 25.156C474.891 27.8274 473.774 30.4989 472.881 32.9477C471.988 35.3965 471.541 37.8454 471.095 40.0716C470.648 42.5204 470.648 44.7466 470.648 46.9728C470.648 51.6479 471.318 56.3229 473.104 61.2206C474.667 66.1183 477.57 71.2386 481.589 76.8041H475.114C473.328 75.0231 471.765 72.7969 470.202 70.5707C468.639 68.1219 467.299 65.673 466.183 63.0016C464.843 60.5527 463.95 57.8813 463.28 55.2098C462.61 52.3158 462.387 49.6443 462.387 46.9728C462.387 44.3014 462.61 41.6299 463.28 38.9585C463.95 36.287 464.843 33.6156 465.959 31.1667C467.076 28.4953 468.415 26.0464 469.978 23.8202C471.541 21.3714 473.328 19.1452 475.114 17.1416Z" fill="#003B60"/>
<path fill-rule="evenodd" clip-rule="evenodd" d="M521.558 19.5908C522.897 19.5908 523.344 20.2587 522.897 21.817C520.888 26.4921 517.762 30.4993 513.296 33.8386C515.975 34.9517 518.655 36.0648 521.334 36.9553C524.237 37.8458 527.363 38.7362 530.712 39.4041L526.916 45.6375C523.121 44.747 519.548 43.6339 516.199 42.5208C513.073 41.1851 509.723 39.8493 506.821 38.0684C503.918 39.6267 500.569 40.9625 496.996 42.2982C493.424 43.6339 489.628 44.747 485.385 46.0827L481.59 39.8493C485.609 38.9589 489.405 38.0684 492.977 36.7327C496.326 35.6195 499.229 34.2838 501.908 33.1707C504.365 31.835 506.598 30.7219 508.161 29.3862C509.947 28.0504 511.063 26.9373 511.956 26.0468C509.5 26.0468 507.267 26.2695 505.035 26.2695H487.618V19.8134H513.519C515.975 19.8134 518.655 19.5908 521.558 19.5908ZM478.91 48.9768H533.168V55.6555H510.393V75.4687H502.355V55.6555H478.91V48.9768Z" fill="#003B60"/>
<path fill-rule="evenodd" clip-rule="evenodd" d="M531.156 17.1416H537.408C539.418 19.1452 541.204 21.3714 542.767 23.8202C544.33 26.0464 545.67 28.4953 546.786 31.1667C547.903 33.6156 548.796 36.287 549.242 38.9585C549.912 41.6299 550.359 44.3014 550.359 46.9728C550.359 49.6443 549.912 52.3158 549.242 55.2098C548.572 57.8813 547.679 60.5527 546.563 63.0016C545.446 65.673 544.107 68.1219 542.544 70.5707C540.981 72.7969 539.195 75.0231 537.408 76.8041H531.156C535.175 71.2386 537.855 66.1183 539.641 61.2206C541.204 56.3229 542.097 51.6479 542.097 46.9728C542.097 44.7466 541.874 42.5204 541.651 40.0716C541.204 37.8454 540.534 35.3965 539.864 32.9477C538.971 30.4989 537.855 27.8274 536.292 25.156C534.952 22.7071 533.166 19.8131 531.156 17.1416Z" fill="#003B60"/>
<path fill-rule="evenodd" clip-rule="evenodd" d="M179.039 100.848H181.272V108.639H190.873V100.848H193.329V120.438H190.873V110.643H181.272V120.438H179.039" fill="#FF0000"/>
<path fill-rule="evenodd" clip-rule="evenodd" d="M213.425 100.848H215.658V112.201C215.658 113.314 215.658 114.205 215.881 115.095C216.104 115.763 216.327 116.431 216.774 117.099C216.997 117.544 217.667 117.989 218.114 118.212C218.784 118.657 219.677 118.657 220.57 118.657C221.463 118.657 222.133 118.657 222.803 118.212C223.472 117.989 223.919 117.544 224.366 117.099C224.589 116.431 225.036 115.763 225.036 115.095C225.259 114.205 225.259 113.314 225.259 112.201V100.848H227.492V112.424C227.492 113.76 227.492 114.65 227.268 115.541C227.045 116.431 226.822 117.322 226.375 117.989C225.705 118.88 225.035 119.548 223.919 119.993C223.026 120.438 221.91 120.661 220.57 120.661C219.007 120.661 217.89 120.438 216.997 119.993C215.881 119.548 215.211 118.88 214.541 117.989C214.095 117.322 213.871 116.431 213.648 115.541C213.425 114.65 213.425 113.76 213.425 112.424M195.785 100.848H198.241L203.6 109.975L208.959 100.848H211.192L204.717 111.756V120.438H202.26V111.979L195.785 100.848ZM231.734 100.848H235.307L242.675 115.986L243.568 117.989V100.848H245.801V120.438H242.452L234.637 104.632L233.744 102.629V120.438H231.734V100.848Z" fill="#003B60"/>
<path fill-rule="evenodd" clip-rule="evenodd" d="M256.297 100.848H258.53V109.975L267.015 100.848H269.694L262.326 108.862L270.364 120.438H267.461L260.986 110.198H260.763L258.53 112.647V120.438H256.297" fill="#FF0000"/>
<path fill-rule="evenodd" clip-rule="evenodd" d="M316.583 100.625C317.699 100.625 318.816 100.625 319.709 100.848C320.825 101.293 321.718 101.515 322.388 102.183V104.855C322.388 104.855 322.165 104.855 322.165 104.632C321.495 103.964 320.602 103.519 319.709 103.074C318.816 102.629 317.699 102.406 316.583 102.406C315.69 102.406 314.573 102.629 313.68 103.074C312.787 103.296 311.894 103.964 311.224 104.632C310.554 105.3 310.107 106.191 309.661 107.081C309.438 108.194 309.214 109.307 309.214 110.643C309.214 111.756 309.214 113.092 309.661 113.982C309.884 115.095 310.331 115.986 311.001 116.654C311.67 117.322 312.564 117.989 313.457 118.212C314.35 118.657 315.466 118.88 316.806 118.88C317.699 118.88 318.369 118.657 318.816 118.657C319.485 118.435 319.932 117.989 320.155 117.544V112.424H315.69V110.42H322.611V119.103C321.495 119.548 320.379 119.993 319.485 120.438C318.369 120.661 317.476 120.661 316.359 120.661C314.796 120.661 313.457 120.438 312.117 119.993C311.001 119.548 310.107 118.88 309.214 117.989C308.321 117.099 307.875 115.986 307.428 114.65C306.981 113.537 306.758 112.201 306.758 110.643C306.758 109.085 306.981 107.526 307.428 106.413C307.875 105.077 308.544 104.187 309.438 103.296C310.331 102.406 311.447 101.738 312.564 101.293C313.68 100.848 315.02 100.625 316.583 100.625ZM375.53 100.625C376.646 100.625 377.763 100.625 378.656 100.848C379.772 101.293 380.665 101.515 381.335 102.183V104.855C381.335 104.855 381.112 104.855 381.112 104.632C380.442 103.964 379.549 103.519 378.656 103.074C377.763 102.629 376.646 102.406 375.53 102.406C374.637 102.406 373.52 102.629 372.627 103.074C371.734 103.296 370.841 103.964 370.171 104.632C369.501 105.3 369.055 106.191 368.608 107.081C368.385 108.194 368.162 109.307 368.162 110.643C368.162 111.756 368.162 113.092 368.608 113.982C368.831 115.095 369.278 115.986 369.948 116.654C370.618 117.322 371.511 117.989 372.404 118.212C373.297 118.657 374.413 118.88 375.753 118.88C376.646 118.88 377.316 118.657 377.763 118.657C378.433 118.435 378.879 117.989 379.102 117.544V112.424H374.637V110.42H381.559V119.103C380.442 119.548 379.326 119.993 378.433 120.438C377.316 120.661 376.423 120.661 375.307 120.661C373.744 120.661 372.404 120.438 371.064 119.993C369.948 119.548 369.055 118.88 368.162 117.989C367.268 117.099 366.822 115.986 366.375 114.65C365.929 113.537 365.705 112.201 365.705 110.643C365.705 109.085 365.929 107.526 366.375 106.413C366.822 105.077 367.492 104.187 368.385 103.296C369.278 102.406 370.394 101.738 371.511 101.293C372.627 100.848 373.967 100.625 375.53 100.625ZM491.192 100.625C492.308 100.625 493.424 100.625 494.318 100.848C495.434 101.293 496.327 101.515 496.997 102.183V104.855C496.997 104.855 496.774 104.855 496.774 104.632C496.104 103.964 495.211 103.519 494.318 103.074C493.424 102.629 492.308 102.406 491.192 102.406C490.298 102.406 489.182 102.629 488.289 103.074C487.396 103.296 486.503 103.964 485.833 104.632C485.163 105.3 484.716 106.191 484.27 107.081C484.046 108.194 483.823 109.307 483.823 110.643C483.823 111.756 483.823 113.092 484.27 113.982C484.493 115.095 484.94 115.986 485.609 116.654C486.279 117.322 487.172 117.989 488.066 118.212C488.959 118.657 490.075 118.88 491.415 118.88C492.308 118.88 492.978 118.657 493.424 118.657C494.094 118.435 494.541 117.989 494.764 117.544V112.424H490.298V110.42H497.22V119.103C496.104 119.548 494.987 119.993 494.094 120.438C492.978 120.661 492.085 120.661 490.968 120.661C489.405 120.661 488.066 120.438 486.726 119.993C485.609 119.548 484.716 118.88 483.823 117.989C482.93 117.099 482.483 115.986 482.037 114.65C481.59 113.537 481.367 112.201 481.367 110.643C481.367 109.085 481.59 107.526 482.037 106.413C482.483 105.077 483.153 104.187 484.046 103.296C484.94 102.406 486.056 101.738 487.172 101.293C488.289 100.848 489.629 100.625 491.192 100.625ZM277.285 100.848H280.187L286.886 120.438H284.43L282.643 114.873H274.605L272.819 120.438H270.586L277.285 100.848ZM289.342 100.848H292.914L300.283 115.986L301.176 117.989V100.848H303.409V120.438H300.06L292.245 104.632L291.351 102.629V120.438H289.342V100.848ZM332.659 100.848H344.94V102.851H334.892V108.862H344.047V110.643H334.892V118.435H344.94V120.438H332.659V100.848ZM348.289 100.848H351.862L359.23 115.986L360.123 117.989V100.848H362.356V120.438H359.007L351.192 104.632L350.299 102.629V120.438H348.289V100.848ZM385.354 100.848H387.587V120.438H385.354V100.848ZM391.83 100.848H395.402L402.771 115.986L403.664 117.989V100.848H405.897V120.438H402.547L394.732 104.632L393.839 102.629V120.438H391.83V100.848ZM410.362 100.848H422.643V102.851H412.595V108.862H421.75V110.643H412.595V118.435H422.643V120.438H410.362V100.848ZM425.992 100.848H438.273V102.851H428.225V108.862H437.38V110.643H428.225V118.435H438.273V120.438H425.992V100.848ZM441.622 100.848H447.204C449.437 100.848 451.224 101.293 452.34 102.406C453.456 103.296 454.126 104.632 454.126 106.413C454.126 107.971 453.68 109.307 453.01 110.198C452.34 111.088 451.224 111.756 449.884 112.201L454.796 120.438H451.893L447.651 112.424H443.855V120.438H441.622V100.848ZM457.476 100.848H459.708V120.438H457.476V100.848ZM463.951 100.848H467.523L474.892 115.986L475.785 117.989V100.848H478.018V120.438H474.668L466.853 104.632L465.96 102.629V120.438H463.951V100.848ZM522.228 100.848H524.461V118.435H533.616V120.438H522.228V100.848ZM534.062 100.848H549.692V102.851H542.994V120.438H540.761V102.851H534.062V100.848ZM552.372 100.848H557.284C564.429 100.848 568.002 103.964 568.002 110.643C568.002 112.201 567.555 113.76 567.108 115.095C566.439 116.208 565.769 117.322 564.652 118.212C563.759 118.88 562.643 119.548 561.303 119.993C559.963 120.216 558.4 120.438 557.061 120.438H552.372V100.848ZM278.624 102.629L275.275 113.092H281.973L278.624 102.629ZM443.855 102.629V110.643H446.535C447.428 110.643 448.098 110.643 448.767 110.42C449.437 110.42 450.107 110.198 450.33 109.752C450.777 109.53 451.224 109.085 451.447 108.417C451.67 107.971 451.67 107.304 451.67 106.413C451.67 105.745 451.67 105.3 451.447 104.855C451.224 104.187 450.777 103.964 450.554 103.519C450.107 103.296 449.661 103.074 448.991 102.851C448.544 102.851 448.098 102.629 447.428 102.629H443.855ZM554.605 102.629V118.657H557.061C559.74 118.657 561.75 117.989 563.089 116.654C564.652 115.318 565.322 113.314 565.322 110.643C565.322 105.3 562.643 102.629 557.061 102.629H554.605ZM515.753 117.099C516.199 117.099 516.646 117.322 517.093 117.767C517.316 118.212 517.539 118.657 517.539 119.325C517.539 119.993 517.539 120.438 517.316 120.884L516.646 122.219C516.199 122.664 515.976 122.887 515.53 123.332L514.19 124L513.743 122.887L515.083 122.219L515.753 120.884V120.438H515.306C515.083 120.438 514.636 120.216 514.413 119.77C513.967 119.548 513.743 119.325 513.743 118.88C513.743 118.435 513.967 117.989 514.413 117.544C514.636 117.322 515.083 117.099 515.753 117.099ZM502.133 117.322C502.579 117.322 503.026 117.544 503.472 117.989C503.696 118.212 503.919 118.657 503.919 119.103C503.919 119.77 503.696 119.993 503.472 120.438C503.026 120.661 502.579 120.884 502.133 120.884C501.686 120.884 501.239 120.661 500.793 120.438C500.57 119.993 500.346 119.77 500.346 119.103C500.346 118.657 500.57 118.212 500.793 117.989C501.239 117.544 501.686 117.322 502.133 117.322Z" fill="#003B60"/>
<path fill-rule="evenodd" clip-rule="evenodd" d="M28.0586 70.3484V120.364H61.2909V67.1575C50.1638 66.2299 38.9623 67.6398 28.0586 70.3855V70.3484Z" fill="url(#paint0_linear_241_508)"/>
<path fill-rule="evenodd" clip-rule="evenodd" d="M92.5508 76.1367V120.364H126.006V100.291C116.293 90.3845 105.018 82.0362 92.5508 76.1738V76.1367Z" fill="url(#paint1_linear_241_508)"/>
<path fill-rule="evenodd" clip-rule="evenodd" d="M144.54 113.685C141.488 99.2148 135.087 85.4865 126.044 73.7618V32.614L92.5517 0V48.2346C90.8398 47.4925 89.0907 46.7876 87.3417 46.1197C79.0057 43.0772 70.1859 41.2962 61.2917 40.9994V0H28.0595V47.6409C24.7102 49.2735 21.4726 51.1658 18.421 53.3549C13.2482 57.0652 8.55926 61.4806 4.54013 66.3782C4.24242 66.7493 0.148857 72.6487 0 72.6116L0.595427 72.7971C1.86071 73.2053 7.10791 70.0886 8.33598 69.6062C28.2456 62 50.3136 56.8055 71.5256 61.5919C103.269 68.79 129.17 91.8683 145.545 119.251C144.763 117.952 144.838 115.206 144.54 113.722V113.685Z" fill="url(#paint2_linear_241_508)"/>
<path fill-rule="evenodd" clip-rule="evenodd" d="M65.0117 0H90.2057L65.0489 25.1191L65.0117 0Z" fill="url(#paint3_linear_241_508)"/>
</g>
<defs>
<linearGradient id="paint0_linear_241_508" x1="6.13944" y1="15.9917" x2="72.4716" y2="150.575" gradientUnits="userSpaceOnUse">
<stop stop-color="#007BC7"/>
<stop offset="1" stop-color="#0A3675"/>
</linearGradient>
<linearGradient id="paint1_linear_241_508" x1="51.5035" y1="-6.34442" x2="117.799" y2="128.238" gradientUnits="userSpaceOnUse">
<stop stop-color="#007BC7"/>
<stop offset="1" stop-color="#0A3675"/>
</linearGradient>
<linearGradient id="paint2_linear_241_508" x1="37.2886" y1="0.667866" x2="103.584" y2="135.251" gradientUnits="userSpaceOnUse">
<stop stop-color="#007BC7"/>
<stop offset="1" stop-color="#0A3675"/>
</linearGradient>
<linearGradient id="paint3_linear_241_508" x1="77.6273" y1="-1.11311" x2="77.6273" y2="27.7534" gradientUnits="userSpaceOnUse">
<stop stop-color="#89B824"/>
<stop offset="1" stop-color="#3D7138"/>
</linearGradient>
<clipPath id="clip0_241_508">
<rect width="568" height="124" fill="white"/>
</clipPath>
</defs>
</svg>
