<svg width="40" height="47" viewBox="0 0 40 47" fill="none" xmlns="http://www.w3.org/2000/svg">
<path d="M33.842 23.0785C33.842 23.9209 33.1555 24.6178 32.3027 24.6178H29.2242C28.3817 24.6178 27.6953 23.9209 27.6953 23.0785C27.6953 22.2361 28.3817 21.5392 29.2242 21.5392H32.3027C33.1555 21.5392 33.842 22.2257 33.842 23.0785Z" fill="black"/>
<path d="M32.3027 15.3822C33.1555 15.3822 33.842 16.0686 33.842 16.9215C33.842 17.7743 33.1555 18.4607 32.3027 18.4607H29.2242C28.3817 18.4607 27.6953 17.7743 27.6953 16.9215C27.6953 16.0686 28.3817 15.3822 29.2242 15.3822H32.3027Z" fill="black"/>
<path d="M32.3027 27.6859C33.1555 27.6859 33.842 28.3827 33.842 29.2252C33.842 30.0676 33.1555 30.7644 32.3027 30.7644H29.2242C28.3817 30.7644 27.6953 30.078 27.6953 29.2252C27.6953 28.3723 28.3817 27.6859 29.2242 27.6859H32.3027Z" fill="black"/>
<path d="M18.4407 18.4608C19.2936 18.4608 19.98 19.1472 19.98 20C19.98 20.8528 19.2936 21.5393 18.4407 21.5393H15.383C14.5406 21.5393 13.8438 20.8424 13.8438 20C13.8438 19.1576 14.5406 18.4608 15.383 18.4608H18.4407Z" fill="black"/>
<path d="M18.4407 24.6177C19.2936 24.6177 19.98 25.3042 19.98 26.1466C19.98 26.989 19.2936 27.6859 18.4407 27.6859H15.383C14.5406 27.6859 13.8438 26.9994 13.8438 26.1466C13.8438 25.2938 14.5406 24.6177 15.383 24.6177H18.4407Z" fill="black"/>
<path d="M18.4407 30.7645C19.2936 30.7645 19.98 31.4509 19.98 32.3037C19.98 33.1566 19.2936 33.843 18.4407 33.843H15.383C14.5406 33.843 13.8438 33.1566 13.8438 32.3037C13.8438 31.4509 14.5406 30.7645 15.383 30.7645H18.4407Z" fill="black"/>
<path d="M18.4407 36.9215C19.2936 36.9215 19.98 37.6079 19.98 38.4608C19.98 39.3136 19.2936 40 18.4407 40H15.383C14.5406 40 13.8438 39.3032 13.8438 38.4608C13.8438 37.6183 14.5406 36.9215 15.383 36.9215H18.4407Z" fill="black"/>
<path d="M9.21808 21.5393H6.16035C5.30752 21.5393 4.62109 20.8424 4.62109 20C4.62109 19.1576 5.30752 18.4608 6.16035 18.4608H9.21808C10.0605 18.4608 10.7469 19.1472 10.7469 20C10.7469 20.8528 10.0605 21.5393 9.21808 21.5393Z" fill="black"/>
<path d="M6.16035 24.6177H9.21808C10.0605 24.6177 10.7469 25.3042 10.7469 26.1466C10.7469 26.989 10.0605 27.6859 9.21808 27.6859H6.16035C5.30752 27.6859 4.62109 26.9994 4.62109 26.1466C4.62109 25.2938 5.30752 24.6177 6.16035 24.6177Z" fill="black"/>
<path d="M9.21808 33.843H6.16035C5.30752 33.843 4.62109 33.1566 4.62109 32.3037C4.62109 31.4509 5.30752 30.7645 6.16035 30.7645H9.21808C10.0605 30.7645 10.7469 31.4509 10.7469 32.3037C10.7469 33.1566 10.0605 33.843 9.21808 33.843Z" fill="black"/>
<path d="M6.16035 36.9215H9.21808C10.0605 36.9215 10.7469 37.6079 10.7469 38.4608C10.7469 39.3136 10.0605 40 9.21808 40H6.16035C5.30752 40 4.62109 39.3032 4.62109 38.4608C4.62109 37.6183 5.30752 36.9215 6.16035 36.9215Z" fill="black"/>
<path d="M9.21437 43.0681H3.07812V38.4607H4.61739C4.61739 39.3031 5.30381 40 6.15665 40H9.21437V43.0681Z" fill="#187BC0"/>
<path d="M18.4395 24.6178H15.3818C14.5394 24.6178 13.8426 25.3042 13.8426 26.1467C13.8426 26.9891 14.5394 27.6859 15.3818 27.6859H18.4395C19.2924 27.6859 19.9788 26.9995 19.9788 26.1467C19.9788 25.2938 19.2924 24.6178 18.4395 24.6178ZM18.4395 30.7644H15.3818C14.5394 30.7644 13.8426 31.4509 13.8426 32.3037C13.8426 33.1565 14.5394 33.843 15.3818 33.843H18.4395C19.2924 33.843 19.9788 33.1565 19.9788 32.3037C19.9788 31.4509 19.2924 30.7644 18.4395 30.7644ZM18.4395 18.4608H15.3818C14.5394 18.4608 13.8426 19.1472 13.8426 20C13.8426 20.8528 14.5394 21.5393 15.3818 21.5393H18.4395C19.2924 21.5393 19.9788 20.8424 19.9788 20C19.9788 19.1576 19.2924 18.4608 18.4395 18.4608ZM18.4395 40C19.2924 40 19.9788 39.3032 19.9788 38.4607C19.9788 37.6183 19.2924 36.9215 18.4395 36.9215H15.3818C14.5394 36.9215 13.8426 37.6079 13.8426 38.4607C13.8426 39.3136 14.5394 40 15.3818 40H18.4395ZM6.15665 24.6178C5.30381 24.6178 4.61739 25.3042 4.61739 26.1467C4.61739 26.9891 5.30381 27.6859 6.15665 27.6859H9.21437C10.0568 27.6859 10.7432 26.9995 10.7432 26.1467C10.7432 25.2938 10.0568 24.6178 9.21437 24.6178H6.15665ZM4.61739 20C4.61739 20.8424 5.30381 21.5393 6.15665 21.5393H9.21437C10.0568 21.5393 10.7432 20.8424 10.7432 20C10.7432 19.1576 10.0568 18.4608 9.21437 18.4608H6.15665C5.30381 18.4608 4.61739 19.1472 4.61739 20ZM6.15665 30.7644C5.30381 30.7644 4.61739 31.4509 4.61739 32.3037C4.61739 33.1565 5.30381 33.843 6.15665 33.843H9.21437C10.0568 33.843 10.7432 33.1565 10.7432 32.3037C10.7432 31.4509 10.0568 30.7644 9.21437 30.7644H6.15665ZM3.07812 17.7015C3.07812 17.0151 3.53574 16.4119 4.19097 16.2247L21.5389 11.2637V43.0681H9.21437V40C10.0568 40 10.7432 39.3032 10.7432 38.4607C10.7432 37.6183 10.0568 36.9215 9.21437 36.9215H6.15665C5.30381 36.9215 4.61739 37.6079 4.61739 38.4607H3.07812V17.7015Z" fill="#187BC0"/>
<path d="M29.2252 36.9215V43.0681H32.3037V36.9215H29.2252ZM24.6178 3.07852V43.0681H26.157V36.9215C26.157 36.0998 26.4795 35.3198 27.0515 34.7478C27.6235 34.1758 28.4139 33.8429 29.2252 33.8429H32.3037C33.1253 33.8429 33.9054 34.1654 34.4774 34.7478C35.0598 35.3198 35.3822 36.0998 35.3822 36.9215V43.0681H36.9215V15.3822C36.9215 14.5294 36.2351 13.8429 35.3822 13.8429C34.5814 13.8429 33.8326 13.6453 33.1773 13.2813C31.7421 12.5013 30.7644 10.9724 30.7644 9.22516V4.61778C30.7644 3.76494 30.078 3.07852 29.2252 3.07852H24.6178ZM0 17.7015C0 15.6422 1.36246 13.8326 3.34893 13.2605L21.5393 8.07072V1.53926C21.5393 0.686423 22.2257 0 23.0785 0H29.2252C31.7837 0 33.843 2.06968 33.843 4.61778V9.22516C33.843 10.078 34.5398 10.7644 35.3822 10.7644C37.9303 10.7644 40 12.8341 40 15.3822V44.6074C40 45.4602 39.3136 46.1466 38.4607 46.1466H1.53926C0.686431 46.1466 0 45.4602 0 44.6074V17.7015ZM3.07852 17.7015V43.0681H21.5393V11.2636L4.19137 16.2246C3.53614 16.4118 3.07852 17.0151 3.07852 17.7015Z" fill="black"/>
</svg>
