<svg width="40" height="30" viewBox="0 0 40 30" fill="none" xmlns="http://www.w3.org/2000/svg">
<path d="M16.287 17.8723C18.5271 19.369 21.452 19.369 23.6922 17.8723L37.3288 8.74542V25.4243C37.3288 25.7667 37.182 26.1189 36.9277 26.3634C36.6929 26.6178 36.3408 26.7645 35.9984 26.7645H4.00034C3.63839 26.7645 3.30579 26.6178 3.05145 26.3634C2.79711 26.1189 2.66016 25.7667 2.66016 25.4243V8.74542L16.287 17.8723Z" fill="#187BC0"/>
<path d="M36.9283 26.3634C37.1827 26.1189 37.3294 25.7667 37.3294 25.4243V8.74542L23.6928 17.8723C21.4527 19.369 18.5278 19.369 16.2876 17.8723L2.6608 8.74542V25.4243C2.6608 25.7667 2.79775 26.1189 3.05209 26.3634C3.30643 26.6178 3.63903 26.7645 4.00098 26.7645H35.999C36.3414 26.7645 36.6936 26.6178 36.9283 26.3634ZM37.2512 5.57593L37.3294 5.5368V4.03033C37.3294 3.66838 37.1827 3.33578 36.9283 3.08144C36.6936 2.8271 36.3414 2.69014 35.999 2.69014H4.00098C3.63903 2.69014 3.30643 2.8271 3.05209 3.08144C2.79775 3.33578 2.6608 3.66838 2.6608 4.03033V5.5368C2.6608 5.5368 2.69993 5.56615 2.72927 5.57593C2.72927 5.57593 12.6681 12.2279 17.7745 15.6322C19.1147 16.5419 20.8657 16.5419 22.2157 15.6322C27.3221 12.2279 37.2512 5.57593 37.2512 5.57593ZM35.999 0C37.0555 0 38.0827 0.43042 38.8261 1.17388C39.5696 1.9369 40 2.95427 40 4.03033V25.4243C40 26.4808 39.5696 27.4982 38.8261 28.2612C38.0827 29.0046 37.0555 29.4351 35.999 29.4351H4.00098C2.9347 29.4351 1.91734 29.0046 1.17388 28.2612C0.430422 27.5177 0 26.4808 0 25.4243V4.03033C0 2.95427 0.410857 1.9369 1.17388 1.17388C1.92712 0.410855 2.9347 0 4.00098 0H35.999Z" fill="#010101"/>
</svg>
