<svg width="40" height="41" viewBox="0 0 40 41" fill="none" xmlns="http://www.w3.org/2000/svg">
<g clip-path="url(#clip0_241_3071)">
<path d="M40 17.19V27.22C40 30.39 37.61 32.95 34.66 32.95H32V35.82C32 38.2 30.21 40.12 28 40.12H12C9.78 40.12 8 38.2 8 35.82V32.95H5.33C2.38 32.95 0 30.39 0 27.22V17.19C0 14.81 1.78 12.89 4 12.89H8V5.73C8 2.56 10.38 0 13.33 0H24.42C24.78 0 25.14 0.16 25.4 0.44L31.64 7.61C31.86 7.88 32 8.22 32 8.6V12.89H36C38.21 12.89 40 14.81 40 17.19ZM37.33 27.22V17.19C37.33 16.39 36.73 15.76 36 15.76H4C3.26 15.76 2.66 16.39 2.66 17.19V27.22C2.66 28.8 3.85 30.09 5.33 30.09H8V27.22C8 25.63 9.18 24.36 10.66 24.36H29.33C30.8 24.36 32 25.63 32 27.22V30.09H34.66C36.13 30.09 37.33 28.8 37.33 27.22ZM29.33 35.82V27.22H10.66V35.82C10.66 36.61 11.26 37.25 12 37.25H28C28.73 37.25 29.33 36.61 29.33 35.82ZM29.33 12.89V10.03H24C22.52 10.03 21.33 8.74 21.33 7.16V2.87H13.33C11.85 2.87 10.66 4.14 10.66 5.73V12.89H29.33ZM27.58 7.16L24 3.04V7.16H27.58Z" fill="#010101"/>
<path d="M6.66015 18.63C5.93016 18.63 5.33017 19.27 5.33017 20.06C5.33017 20.85 5.93016 21.49 6.66015 21.49C7.39015 21.49 8.00018 20.85 8.00018 20.06C8.00018 19.27 7.40015 18.63 6.66015 18.63ZM2.66016 27.22V17.19C2.66016 16.39 3.26018 15.76 4.00018 15.76H36.0002C36.7302 15.76 37.3302 16.39 37.3302 17.19V27.22C37.3302 28.8 36.1301 30.09 34.6601 30.09H32.0002V27.22C32.0002 25.63 30.8002 24.36 29.3302 24.36H10.6602C9.18015 24.36 8.00018 25.63 8.00018 27.22V30.09H5.33017C3.85017 30.09 2.66016 28.8 2.66016 27.22Z" fill="#187BC0"/>
<path d="M24 3.03998L27.58 7.15998H24V3.03998Z" fill="#187BC0"/>
<path d="M25.3281 34.39H14.6581C13.9281 34.39 13.3281 33.74 13.3281 32.95C13.3281 32.16 13.9281 31.52 14.6581 31.52H25.3281C26.0581 31.52 26.6581 32.15 26.6581 32.95C26.6581 33.75 26.0581 34.39 25.3281 34.39Z" fill="#187BC0"/>
<path d="M6.65811 18.63C7.39811 18.63 7.99814 19.27 7.99814 20.06C7.99814 20.85 7.39811 21.49 6.65811 21.49C5.91811 21.49 5.32812 20.85 5.32812 20.06C5.32812 19.27 5.92811 18.63 6.65811 18.63Z" fill="#010101"/>
<path d="M27.58 7.16L24 3.04V7.16H27.58ZM28 37.25C28.73 37.25 29.33 36.61 29.33 35.82V27.22H10.66V35.82C10.66 36.61 11.26 37.25 12 37.25H28ZM13.33 2.87C11.85 2.87 10.66 4.14 10.66 5.73V12.89H29.33V10.03H24C22.52 10.03 21.33 8.74 21.33 7.16V2.87H13.33ZM5.33 32.95C2.38 32.95 0 30.39 0 27.22V17.19C0 14.81 1.78001 12.89 4.00001 12.89H8.00001V5.73C8.00001 2.56 10.38 0 13.33 0H24.42C24.78 0 25.14 0.160002 25.4 0.440002L31.64 7.61C31.86 7.88 32 8.22 32 8.6V12.89H36C38.21 12.89 40 14.81 40 17.19V27.22C40 30.39 37.61 32.95 34.66 32.95H32V35.82C32 38.2 30.21 40.12 28 40.12H12C9.78001 40.12 8.00001 38.2 8.00001 35.82V32.95H5.33ZM2.65999 27.22C2.65999 28.8 3.85 30.09 5.33 30.09H8.00001V27.22C8.00001 25.63 9.17999 24.36 10.66 24.36H29.33C30.8 24.36 32 25.63 32 27.22V30.09H34.66C36.13 30.09 37.33 28.8 37.33 27.22V17.19C37.33 16.39 36.73 15.76 36 15.76H4.00001C3.26001 15.76 2.65999 16.39 2.65999 17.19V27.22Z" fill="#010101"/>
<path d="M6.65812 18.63C7.39812 18.63 7.99813 19.27 7.99813 20.06C7.99813 20.85 7.39812 21.49 6.65812 21.49C5.91812 21.49 5.32812 20.85 5.32812 20.06C5.32812 19.27 5.92812 18.63 6.65812 18.63Z" fill="#010101"/>
</g>
<defs>
<clipPath id="clip0_241_3071">
<rect width="40" height="40.12" fill="white"/>
</clipPath>
</defs>
</svg>
