<svg width="40" height="40" viewBox="0 0 40 40" fill="none" xmlns="http://www.w3.org/2000/svg">
<path d="M40.0009 21.4382C40.0009 22.2282 39.351 22.8681 38.5711 22.8681C37.7911 22.8681 37.1412 22.2282 37.1412 21.4382C37.1412 11.1891 28.8219 2.85977 18.5627 2.85977C17.7728 2.85977 17.1328 2.21982 17.1328 1.42988C17.1328 0.639948 17.7728 0 18.5627 0C30.3917 0 40.0009 9.60921 40.0009 21.4382Z" fill="#187BC0"/>
<path d="M37.1283 31.3974C37.1983 32.2273 36.8983 33.0373 36.2983 33.6272C35.2984 34.6371 33.7985 36.137 32.3686 37.5269C30.7388 39.1568 28.579 39.9967 26.3991 39.9967C24.8093 39.9967 23.2094 39.5567 21.8095 38.6468C13.5902 33.1973 6.79074 26.3778 1.35118 18.2185V18.1985C-0.808642 14.8388 -0.338685 10.4191 2.47109 7.60934C3.89097 6.17946 5.39085 4.67958 6.39077 3.67966C6.98072 3.08971 7.81066 2.78974 8.63059 2.85973C9.46052 2.91973 10.2205 3.35969 10.7104 4.02963L14.1601 8.87924C14.2501 8.99923 14.3301 9.12922 14.3901 9.2592C14.4501 9.38919 14.5101 9.52918 14.5601 9.65917C14.8101 10.4791 14.6901 11.359 14.2101 12.089L11.2604 16.5086C14.8401 22.2381 17.8898 25.3379 23.4794 28.7576L27.909 25.8079C28.379 25.4979 28.9289 25.3379 29.4689 25.3379C30.0588 25.3379 30.6288 25.5079 31.1288 25.8679H31.1088L35.9384 29.3076C36.6283 29.7975 37.0583 30.5575 37.1283 31.3974ZM34.2685 31.6274L29.4689 28.1977L25.0492 31.1374C24.1293 31.7574 22.9294 31.7874 21.9795 31.1974C19.3497 29.5876 17.2399 28.0377 15.37 26.2978C15.0701 26.0178 14.7801 25.7379 14.4901 25.4479C12.4803 23.4081 10.7104 21.0682 8.82058 18.0185C8.23062 17.0786 8.25062 15.8687 8.88057 14.9387L11.8103 10.5191L8.38061 5.7195L4.49093 9.61918C2.62108 11.489 2.3011 14.4188 3.73098 16.6386C6.35077 20.5683 9.28053 24.148 12.5503 27.4277C15.82 30.6975 19.4397 33.6372 23.3694 36.257C25.5792 37.6669 28.479 37.3669 30.3388 35.4971C30.3388 35.4971 30.3388 35.4871 30.3688 35.4871C31.7887 34.1172 33.2686 32.6273 34.2685 31.6274Z" fill="#010101"/>
<path d="M32.8515 21.4382C32.8515 22.2182 32.2016 22.8581 31.4216 22.8581C31.2217 22.8581 31.0317 22.8181 30.8617 22.7481C30.3517 22.5381 29.9918 22.0182 29.9918 21.4382C29.9918 15.1287 24.8722 9.99917 18.5627 9.99917C18.0727 9.99917 17.6328 9.74919 17.3728 9.36922L17.3128 9.27923C17.3128 9.27923 17.2828 9.22923 17.2728 9.18923C17.1728 9.00925 17.1328 8.78927 17.1328 8.56929C17.1328 7.78935 17.7728 7.1394 18.5627 7.1394C26.442 7.1394 32.8515 13.5489 32.8515 21.4382Z" fill="#187BC0"/>
<path d="M25.7021 21.4183C25.7021 22.2082 25.0622 22.8482 24.2722 22.8482C23.4823 22.8482 22.8423 22.2082 22.8423 21.4183C22.8423 19.0585 20.9325 17.1286 18.5627 17.1286C17.7728 17.1286 17.1328 16.4987 17.1328 15.6987C17.1328 14.8988 17.7728 14.2689 18.5627 14.2689C22.5024 14.2689 25.7021 17.4786 25.7021 21.4183Z" fill="#187BC0"/>
</svg>
